<svg width="774" height="330" viewBox="0 0 774 330" fill="none" xmlns="http://www.w3.org/2000/svg">
<rect x="1.02148" y="1" width="730.979" height="328" rx="10" fill="white" stroke="#E4E4E7"/>
<line x1="25.0215" y1="268.5" x2="773.021" y2="268.5" stroke="#F4F4F5"/>
<line x1="25.0215" y1="228.5" x2="773.021" y2="228.5" stroke="#F4F4F5"/>
<line x1="25.0215" y1="188.5" x2="773.021" y2="188.5" stroke="#F4F4F5"/>
<line x1="25.0215" y1="148.5" x2="773.021" y2="148.5" stroke="#F4F4F5"/>
<line x1="25.0215" y1="108.5" x2="773.021" y2="108.5" stroke="#F4F4F5"/>
<mask id="mask0_432_635" style="mask-type:alpha" maskUnits="userSpaceOnUse" x="25" y="79" width="707" height="189">
<rect x="25.0215" y="79" width="706.979" height="189" fill="white"/>
</mask>
<g mask="url(#mask0_432_635)">
<path d="M21.7585 221C11.39 225.8 3.61361 227.667 1.02148 228V269H732V119C721.344 129.667 695.883 149.8 679.294 145C658.557 139 635.227 140 619.675 145C604.122 150 594.618 157 577.337 158C560.056 159 565.24 154 538.455 151C511.67 148 500.437 177 487.476 185C474.516 193 441.682 191 429.586 185C417.489 179 407.121 177 397.616 177C388.112 177 388.112 184 374.287 185C360.462 186 346.638 176 327.629 177C308.62 178 282.699 197 262.826 198C242.953 199 255.049 193 226.536 191C198.023 189 175.558 215 157.413 221C139.268 227 112.483 214 97.7941 210C83.1054 206 69.2807 221 58.0482 221C46.8157 221 34.7191 215 21.7585 221Z" fill="#FFF5F2" stroke="#F65E2C" stroke-width="2"/>
<path d="M-50.4323 247.5H-82.9785V275H781.021V175C780.004 178.333 777.869 185.5 777.462 187.5C776.953 190 767.8 196.5 763.223 193.5C758.646 190.5 748.984 190 743.898 191.5C738.813 193 739.83 190 730.168 187.5C720.506 185 717.455 193 712.369 194.5C707.284 196 699.656 193 696.096 190L695.944 189.871C692.405 186.887 687.779 182.986 675.246 182C662.533 181 659.99 196.5 654.905 202C649.82 207.5 638.123 204.5 635.072 203.5C632.021 202.5 629.478 199 619.816 202C610.154 205 601 215.5 589.304 216C577.608 216.5 567.437 208.5 559.3 208.5C551.164 208.5 553.707 210 542.519 212.5C531.331 215 512.007 208.5 505.396 206C498.785 203.5 490.14 206 485.563 208.5C480.986 211 464.713 211.5 460.136 210C455.559 208.5 442.338 205 439.286 208.5C436.235 212 422.505 206 418.436 206C414.368 206 416.402 202.5 405.723 200.5C395.044 198.5 387.924 208.5 384.873 210C381.822 211.5 376.228 209 371.143 206C366.057 203 345.207 200 333.003 202.5C320.798 205 319.781 212.5 311.644 213.5C303.508 214.5 299.948 221.5 295.88 221.5C291.811 221.5 289.269 221.5 285.709 219.5C282.149 217.5 273.504 219.5 269.944 221.5C266.385 223.5 260.282 224.5 253.163 225C246.043 225.5 241.975 221 236.381 219.5C230.787 218 223.159 217 208.92 217.5C194.681 218 195.19 227 180.442 230.5C165.695 234 155.016 229.5 144.845 228C134.674 226.5 126.029 233.5 121.452 236C116.876 238.5 106.705 236 96.5341 233.5C86.3634 231 82.2952 236 80.7696 236C79.244 236 72.1245 242.5 63.9879 236C55.8514 229.5 52.2916 231.5 49.2404 231.5C46.1892 231.5 44.1551 235 39.5783 233.5C35.0015 232 35.0015 227.5 27.3735 228C19.7454 228.5 14.1516 239 11.6089 240.5C9.06622 242 3.47234 244 -0.59594 244.5C-4.66422 245 -4.66422 242.5 -16.869 241.5C-29.0739 240.5 -36.1933 247.5 -50.4323 247.5Z" fill="#FFF0EB" stroke="#EFA891" stroke-width="2"/>
</g>
<path d="M27.1005 303V293.315H33.2365V294.485H28.3745V297.618H32.7815V298.788H28.3745V303H27.1005ZM37.5448 303.156C36.8688 303.156 36.2664 302.996 35.7378 302.675C35.2091 302.354 34.7931 301.917 34.4898 301.362C34.1864 300.799 34.0348 300.17 34.0348 299.477C34.0348 298.775 34.1821 298.151 34.4768 297.605C34.7801 297.059 35.1874 296.63 35.6988 296.318C36.2188 295.997 36.7994 295.837 37.4408 295.837C37.9608 295.837 38.4201 295.932 38.8188 296.123C39.2261 296.305 39.5684 296.556 39.8458 296.877C40.1318 297.189 40.3484 297.549 40.4958 297.956C40.6518 298.355 40.7298 298.771 40.7298 299.204C40.7298 299.299 40.7211 299.408 40.7038 299.529C40.6951 299.642 40.6821 299.75 40.6648 299.854H34.9188V298.814H39.9628L39.3908 299.282C39.4688 298.831 39.4254 298.428 39.2608 298.073C39.0961 297.718 38.8534 297.436 38.5328 297.228C38.2121 297.02 37.8481 296.916 37.4408 296.916C37.0334 296.916 36.6608 297.02 36.3228 297.228C35.9848 297.436 35.7204 297.735 35.5298 298.125C35.3478 298.506 35.2741 298.961 35.3088 299.49C35.2741 300.001 35.3521 300.452 35.5428 300.842C35.7421 301.223 36.0194 301.522 36.3748 301.739C36.7388 301.947 37.1331 302.051 37.5578 302.051C38.0258 302.051 38.4201 301.943 38.7408 301.726C39.0614 301.509 39.3214 301.232 39.5208 300.894L40.5348 301.414C40.3961 301.735 40.1794 302.029 39.8848 302.298C39.5988 302.558 39.2564 302.766 38.8578 302.922C38.4678 303.078 38.0301 303.156 37.5448 303.156ZM45.9331 303.156C45.3698 303.156 44.8541 303.03 44.3861 302.779C43.9268 302.528 43.5715 302.172 43.3201 301.713L43.4891 301.505V303H42.3061V293.159H43.5151V297.501L43.3331 297.202C43.5931 296.786 43.9485 296.457 44.3991 296.214C44.8498 295.963 45.3655 295.837 45.9461 295.837C46.6048 295.837 47.1941 295.997 47.7141 296.318C48.2428 296.639 48.6588 297.076 48.9621 297.631C49.2655 298.177 49.4171 298.801 49.4171 299.503C49.4171 300.188 49.2655 300.807 48.9621 301.362C48.6588 301.917 48.2428 302.354 47.7141 302.675C47.1941 302.996 46.6005 303.156 45.9331 303.156ZM45.8421 301.986C46.2841 301.986 46.6785 301.878 47.0251 301.661C47.3718 301.444 47.6405 301.15 47.8311 300.777C48.0305 300.396 48.1301 299.971 48.1301 299.503C48.1301 299.018 48.0305 298.593 47.8311 298.229C47.6405 297.856 47.3718 297.562 47.0251 297.345C46.6785 297.12 46.2841 297.007 45.8421 297.007C45.4001 297.007 45.0015 297.115 44.6461 297.332C44.2995 297.549 44.0221 297.848 43.8141 298.229C43.6148 298.602 43.5151 299.026 43.5151 299.503C43.5151 299.971 43.6148 300.396 43.8141 300.777C44.0221 301.15 44.2995 301.444 44.6461 301.661C45.0015 301.878 45.4001 301.986 45.8421 301.986Z" fill="#52525B"/>
<path d="M93.5287 303V293.315H94.6987L98.3257 298.476H97.7277L101.329 293.315H102.499V303H101.212V294.927L101.667 295.07L98.0657 300.14H97.9617L94.3997 295.07L94.8027 294.927V303H93.5287ZM106.561 303.156C106.101 303.156 105.694 303.074 105.339 302.909C104.992 302.736 104.719 302.502 104.52 302.207C104.32 301.904 104.221 301.557 104.221 301.167C104.221 300.794 104.299 300.461 104.455 300.166C104.619 299.863 104.871 299.607 105.209 299.399C105.555 299.191 105.989 299.044 106.509 298.957L109.109 298.528V299.542L106.782 299.932C106.331 300.01 106.002 300.153 105.794 300.361C105.594 300.569 105.495 300.825 105.495 301.128C105.495 301.414 105.607 301.652 105.833 301.843C106.067 302.034 106.357 302.129 106.704 302.129C107.146 302.129 107.527 302.038 107.848 301.856C108.177 301.665 108.433 301.41 108.615 301.089C108.805 300.768 108.901 300.413 108.901 300.023V298.242C108.901 297.861 108.758 297.553 108.472 297.319C108.194 297.076 107.826 296.955 107.367 296.955C106.968 296.955 106.613 297.059 106.301 297.267C105.997 297.466 105.772 297.735 105.625 298.073L104.572 297.527C104.702 297.206 104.91 296.92 105.196 296.669C105.482 296.409 105.815 296.205 106.197 296.058C106.578 295.911 106.977 295.837 107.393 295.837C107.93 295.837 108.402 295.941 108.81 296.149C109.217 296.348 109.533 296.63 109.759 296.994C109.993 297.349 110.11 297.765 110.11 298.242V303H108.927V301.674L109.148 301.752C109 302.029 108.801 302.272 108.55 302.48C108.298 302.688 108.004 302.853 107.666 302.974C107.328 303.095 106.959 303.156 106.561 303.156ZM111.984 303V295.993H113.167V297.28L113.037 297.098C113.202 296.699 113.453 296.405 113.791 296.214C114.129 296.015 114.541 295.915 115.026 295.915H115.455V297.059H114.844C114.35 297.059 113.952 297.215 113.648 297.527C113.345 297.83 113.193 298.264 113.193 298.827V303H111.984Z" fill="#52525B"/>
<path d="M158.177 303L161.648 293.315H163.156L166.627 303H165.262L164.469 300.725H160.335L159.542 303H158.177ZM160.738 299.555H164.066L162.22 294.238H162.584L160.738 299.555ZM167.704 305.6V295.993H168.887V297.501L168.731 297.202C168.991 296.786 169.346 296.457 169.797 296.214C170.248 295.963 170.763 295.837 171.344 295.837C172.003 295.837 172.592 295.997 173.112 296.318C173.641 296.639 174.057 297.076 174.36 297.631C174.663 298.177 174.815 298.801 174.815 299.503C174.815 300.188 174.663 300.807 174.36 301.362C174.057 301.917 173.641 302.354 173.112 302.675C172.592 302.996 171.998 303.156 171.331 303.156C170.768 303.156 170.252 303.03 169.784 302.779C169.325 302.528 168.969 302.172 168.718 301.713L168.913 301.505V305.6H167.704ZM171.24 301.986C171.682 301.986 172.076 301.878 172.423 301.661C172.77 301.444 173.038 301.15 173.229 300.777C173.428 300.396 173.528 299.971 173.528 299.503C173.528 299.018 173.428 298.593 173.229 298.229C173.038 297.856 172.77 297.562 172.423 297.345C172.076 297.12 171.682 297.007 171.24 297.007C170.798 297.007 170.399 297.115 170.044 297.332C169.697 297.549 169.42 297.848 169.212 298.229C169.013 298.602 168.913 299.026 168.913 299.503C168.913 299.971 169.013 300.396 169.212 300.777C169.42 301.15 169.697 301.444 170.044 301.661C170.399 301.878 170.798 301.986 171.24 301.986ZM176.4 303V295.993H177.583V297.28L177.453 297.098C177.618 296.699 177.869 296.405 178.207 296.214C178.545 296.015 178.957 295.915 179.442 295.915H179.871V297.059H179.26C178.766 297.059 178.368 297.215 178.064 297.527C177.761 297.83 177.609 298.264 177.609 298.827V303H176.4Z" fill="#52525B"/>
<path d="M223.208 303V293.315H224.378L228.005 298.476H227.407L231.008 293.315H232.178V303H230.891V294.927L231.346 295.07L227.745 300.14H227.641L224.079 295.07L224.482 294.927V303H223.208ZM236.24 303.156C235.781 303.156 235.374 303.074 235.018 302.909C234.672 302.736 234.399 302.502 234.199 302.207C234 301.904 233.9 301.557 233.9 301.167C233.9 300.794 233.978 300.461 234.134 300.166C234.299 299.863 234.55 299.607 234.888 299.399C235.235 299.191 235.668 299.044 236.188 298.957L238.788 298.528V299.542L236.461 299.932C236.011 300.01 235.681 300.153 235.473 300.361C235.274 300.569 235.174 300.825 235.174 301.128C235.174 301.414 235.287 301.652 235.512 301.843C235.746 302.034 236.037 302.129 236.383 302.129C236.825 302.129 237.207 302.038 237.527 301.856C237.857 301.665 238.112 301.41 238.294 301.089C238.485 300.768 238.58 300.413 238.58 300.023V298.242C238.58 297.861 238.437 297.553 238.151 297.319C237.874 297.076 237.506 296.955 237.046 296.955C236.648 296.955 236.292 297.059 235.98 297.267C235.677 297.466 235.452 297.735 235.304 298.073L234.251 297.527C234.381 297.206 234.589 296.92 234.875 296.669C235.161 296.409 235.495 296.205 235.876 296.058C236.258 295.911 236.656 295.837 237.072 295.837C237.61 295.837 238.082 295.941 238.489 296.149C238.897 296.348 239.213 296.63 239.438 296.994C239.672 297.349 239.789 297.765 239.789 298.242V303H238.606V301.674L238.827 301.752C238.68 302.029 238.481 302.272 238.229 302.48C237.978 302.688 237.683 302.853 237.345 302.974C237.007 303.095 236.639 303.156 236.24 303.156ZM242.041 305.86C241.885 305.86 241.729 305.847 241.573 305.821C241.417 305.795 241.27 305.752 241.131 305.691V304.612C241.226 304.629 241.343 304.647 241.482 304.664C241.629 304.69 241.772 304.703 241.911 304.703C242.318 304.703 242.626 304.612 242.834 304.43C243.051 304.257 243.254 303.953 243.445 303.52L243.887 302.467L243.861 303.52L240.871 295.993H242.184L244.511 301.973H244.121L246.435 295.993H247.774L244.615 303.832C244.468 304.205 244.277 304.543 244.043 304.846C243.818 305.158 243.54 305.405 243.211 305.587C242.882 305.769 242.492 305.86 242.041 305.86Z" fill="#52525B"/>
<path d="M291.123 303V301.765H291.656C292.115 301.765 292.479 301.631 292.748 301.362C293.017 301.085 293.151 300.712 293.151 300.244V293.315H294.438V300.218C294.438 300.781 294.321 301.271 294.087 301.687C293.862 302.103 293.541 302.428 293.125 302.662C292.709 302.887 292.219 303 291.656 303H291.123ZM298.907 303.156C298.404 303.156 297.949 303.039 297.542 302.805C297.143 302.571 296.831 302.246 296.606 301.83C296.389 301.405 296.281 300.92 296.281 300.374V295.993H297.49V300.244C297.49 300.591 297.559 300.894 297.698 301.154C297.845 301.414 298.044 301.618 298.296 301.765C298.556 301.912 298.85 301.986 299.18 301.986C299.509 301.986 299.799 301.912 300.051 301.765C300.311 301.618 300.51 301.405 300.649 301.128C300.796 300.851 300.87 300.521 300.87 300.14V295.993H302.092V303H300.909V301.635L301.104 301.752C300.939 302.194 300.657 302.541 300.259 302.792C299.869 303.035 299.418 303.156 298.907 303.156ZM303.965 303V295.993H305.148V297.358L304.953 297.241C305.126 296.799 305.403 296.457 305.785 296.214C306.175 295.963 306.63 295.837 307.15 295.837C307.652 295.837 308.099 295.95 308.489 296.175C308.887 296.4 309.199 296.712 309.425 297.111C309.659 297.51 309.776 297.96 309.776 298.463V303H308.554V298.853C308.554 298.463 308.484 298.134 308.346 297.865C308.207 297.596 308.008 297.388 307.748 297.241C307.496 297.085 307.206 297.007 306.877 297.007C306.547 297.007 306.253 297.085 305.993 297.241C305.741 297.388 305.542 297.601 305.395 297.878C305.247 298.147 305.174 298.472 305.174 298.853V303H303.965Z" fill="#52525B"/>
<path d="M351.851 303V301.765H352.384C352.844 301.765 353.208 301.631 353.476 301.362C353.745 301.085 353.879 300.712 353.879 300.244V293.315H355.166V300.218C355.166 300.781 355.049 301.271 354.815 301.687C354.59 302.103 354.269 302.428 353.853 302.662C353.437 302.887 352.948 303 352.384 303H351.851ZM359.635 303.156C359.132 303.156 358.677 303.039 358.27 302.805C357.871 302.571 357.559 302.246 357.334 301.83C357.117 301.405 357.009 300.92 357.009 300.374V295.993H358.218V300.244C358.218 300.591 358.287 300.894 358.426 301.154C358.573 301.414 358.772 301.618 359.024 301.765C359.284 301.912 359.578 301.986 359.908 301.986C360.237 301.986 360.527 301.912 360.779 301.765C361.039 301.618 361.238 301.405 361.377 301.128C361.524 300.851 361.598 300.521 361.598 300.14V295.993H362.82V303H361.637V301.635L361.832 301.752C361.667 302.194 361.385 302.541 360.987 302.792C360.597 303.035 360.146 303.156 359.635 303.156ZM364.693 303V293.159H365.902V303H364.693Z" fill="#52525B"/>
<path d="M409.306 303L412.777 293.315H414.285L417.756 303H416.391L415.598 300.725H411.464L410.671 303H409.306ZM411.867 299.555H415.195L413.349 294.238H413.713L411.867 299.555ZM421.189 303.156C420.686 303.156 420.231 303.039 419.824 302.805C419.425 302.571 419.113 302.246 418.888 301.83C418.671 301.405 418.563 300.92 418.563 300.374V295.993H419.772V300.244C419.772 300.591 419.841 300.894 419.98 301.154C420.127 301.414 420.327 301.618 420.578 301.765C420.838 301.912 421.133 301.986 421.462 301.986C421.791 301.986 422.082 301.912 422.333 301.765C422.593 301.618 422.792 301.405 422.931 301.128C423.078 300.851 423.152 300.521 423.152 300.14V295.993H424.374V303H423.191V301.635L423.386 301.752C423.221 302.194 422.94 302.541 422.541 302.792C422.151 303.035 421.7 303.156 421.189 303.156ZM429.588 305.86C429.094 305.86 428.635 305.782 428.21 305.626C427.794 305.47 427.434 305.253 427.131 304.976C426.836 304.707 426.611 304.391 426.455 304.027L427.586 303.507C427.707 303.836 427.937 304.114 428.275 304.339C428.622 304.573 429.055 304.69 429.575 304.69C429.974 304.69 430.333 304.612 430.654 304.456C430.983 304.309 431.243 304.083 431.434 303.78C431.625 303.485 431.72 303.126 431.72 302.701V301.128L431.941 301.362C431.698 301.839 431.347 302.203 430.888 302.454C430.437 302.705 429.939 302.831 429.393 302.831C428.734 302.831 428.145 302.679 427.625 302.376C427.105 302.064 426.698 301.644 426.403 301.115C426.108 300.578 425.961 299.984 425.961 299.334C425.961 298.675 426.108 298.082 426.403 297.553C426.698 297.024 427.101 296.608 427.612 296.305C428.132 295.993 428.721 295.837 429.38 295.837C429.926 295.837 430.42 295.963 430.862 296.214C431.313 296.457 431.672 296.795 431.941 297.228L431.759 297.553V295.993H432.942V302.701C432.942 303.308 432.799 303.849 432.513 304.326C432.227 304.803 431.828 305.175 431.317 305.444C430.814 305.721 430.238 305.86 429.588 305.86ZM429.497 301.661C429.913 301.661 430.286 301.557 430.615 301.349C430.953 301.141 431.222 300.864 431.421 300.517C431.62 300.162 431.72 299.767 431.72 299.334C431.72 298.909 431.62 298.519 431.421 298.164C431.222 297.809 430.953 297.527 430.615 297.319C430.286 297.111 429.913 297.007 429.497 297.007C429.072 297.007 428.687 297.111 428.34 297.319C427.993 297.527 427.72 297.809 427.521 298.164C427.33 298.511 427.235 298.901 427.235 299.334C427.235 299.767 427.33 300.162 427.521 300.517C427.72 300.864 427.989 301.141 428.327 301.349C428.674 301.557 429.064 301.661 429.497 301.661Z" fill="#52525B"/>
<path d="M480.886 303.156C480.27 303.156 479.707 303.043 479.196 302.818C478.684 302.584 478.251 302.268 477.896 301.869C477.54 301.47 477.285 301.024 477.129 300.53L478.234 300.075C478.468 300.699 478.814 301.18 479.274 301.518C479.742 301.847 480.288 302.012 480.912 302.012C481.293 302.012 481.627 301.951 481.913 301.83C482.199 301.709 482.42 301.54 482.576 301.323C482.74 301.098 482.823 300.838 482.823 300.543C482.823 300.136 482.706 299.815 482.472 299.581C482.246 299.338 481.913 299.156 481.471 299.035L479.69 298.489C478.988 298.272 478.45 297.93 478.078 297.462C477.705 296.994 477.519 296.457 477.519 295.85C477.519 295.321 477.644 294.858 477.896 294.459C478.156 294.052 478.511 293.735 478.962 293.51C479.421 293.276 479.941 293.159 480.522 293.159C481.102 293.159 481.627 293.263 482.095 293.471C482.571 293.679 482.974 293.961 483.304 294.316C483.633 294.663 483.876 295.061 484.032 295.512L482.94 295.967C482.732 295.421 482.42 295.009 482.004 294.732C481.588 294.446 481.098 294.303 480.535 294.303C480.188 294.303 479.88 294.364 479.612 294.485C479.352 294.598 479.148 294.767 479.001 294.992C478.862 295.209 478.793 295.469 478.793 295.772C478.793 296.127 478.905 296.444 479.131 296.721C479.356 296.998 479.698 297.211 480.158 297.358L481.783 297.839C482.545 298.073 483.122 298.407 483.512 298.84C483.902 299.273 484.097 299.811 484.097 300.452C484.097 300.981 483.958 301.449 483.681 301.856C483.412 302.263 483.035 302.584 482.55 302.818C482.073 303.043 481.518 303.156 480.886 303.156ZM489.043 303.156C488.367 303.156 487.764 302.996 487.236 302.675C486.707 302.354 486.291 301.917 485.988 301.362C485.684 300.799 485.533 300.17 485.533 299.477C485.533 298.775 485.68 298.151 485.975 297.605C486.278 297.059 486.685 296.63 487.197 296.318C487.717 295.997 488.297 295.837 488.939 295.837C489.459 295.837 489.918 295.932 490.317 296.123C490.724 296.305 491.066 296.556 491.344 296.877C491.63 297.189 491.846 297.549 491.994 297.956C492.15 298.355 492.228 298.771 492.228 299.204C492.228 299.299 492.219 299.408 492.202 299.529C492.193 299.642 492.18 299.75 492.163 299.854H486.417V298.814H491.461L490.889 299.282C490.967 298.831 490.923 298.428 490.759 298.073C490.594 297.718 490.351 297.436 490.031 297.228C489.71 297.02 489.346 296.916 488.939 296.916C488.531 296.916 488.159 297.02 487.821 297.228C487.483 297.436 487.218 297.735 487.028 298.125C486.846 298.506 486.772 298.961 486.807 299.49C486.772 300.001 486.85 300.452 487.041 300.842C487.24 301.223 487.517 301.522 487.873 301.739C488.237 301.947 488.631 302.051 489.056 302.051C489.524 302.051 489.918 301.943 490.239 301.726C490.559 301.509 490.819 301.232 491.019 300.894L492.033 301.414C491.894 301.735 491.677 302.029 491.383 302.298C491.097 302.558 490.754 302.766 490.356 302.922C489.966 303.078 489.528 303.156 489.043 303.156ZM493.804 305.6V295.993H494.987V297.501L494.831 297.202C495.091 296.786 495.446 296.457 495.897 296.214C496.348 295.963 496.863 295.837 497.444 295.837C498.103 295.837 498.692 295.997 499.212 296.318C499.741 296.639 500.157 297.076 500.46 297.631C500.763 298.177 500.915 298.801 500.915 299.503C500.915 300.188 500.763 300.807 500.46 301.362C500.157 301.917 499.741 302.354 499.212 302.675C498.692 302.996 498.098 303.156 497.431 303.156C496.868 303.156 496.352 303.03 495.884 302.779C495.425 302.528 495.069 302.172 494.818 301.713L495.013 301.505V305.6H493.804ZM497.34 301.986C497.782 301.986 498.176 301.878 498.523 301.661C498.87 301.444 499.138 301.15 499.329 300.777C499.528 300.396 499.628 299.971 499.628 299.503C499.628 299.018 499.528 298.593 499.329 298.229C499.138 297.856 498.87 297.562 498.523 297.345C498.176 297.12 497.782 297.007 497.34 297.007C496.898 297.007 496.499 297.115 496.144 297.332C495.797 297.549 495.52 297.848 495.312 298.229C495.113 298.602 495.013 299.026 495.013 299.503C495.013 299.971 495.113 300.396 495.312 300.777C495.52 301.15 495.797 301.444 496.144 301.661C496.499 301.878 496.898 301.986 497.34 301.986Z" fill="#52525B"/>
<path d="M550.028 303.156C549.344 303.156 548.702 303.035 548.104 302.792C547.506 302.541 546.982 302.19 546.531 301.739C546.089 301.288 545.743 300.76 545.491 300.153C545.24 299.538 545.114 298.87 545.114 298.151C545.114 297.423 545.24 296.756 545.491 296.149C545.743 295.542 546.089 295.014 546.531 294.563C546.982 294.112 547.502 293.766 548.091 293.523C548.689 293.28 549.335 293.159 550.028 293.159C550.722 293.159 551.363 293.285 551.952 293.536C552.55 293.779 553.07 294.125 553.512 294.576C553.963 295.018 554.314 295.542 554.565 296.149C554.825 296.756 554.955 297.423 554.955 298.151C554.955 298.87 554.825 299.538 554.565 300.153C554.314 300.76 553.963 301.288 553.512 301.739C553.07 302.19 552.55 302.541 551.952 302.792C551.363 303.035 550.722 303.156 550.028 303.156ZM550.028 301.973C550.566 301.973 551.055 301.878 551.497 301.687C551.939 301.488 552.321 301.215 552.641 300.868C552.971 300.513 553.222 300.105 553.395 299.646C553.577 299.178 553.668 298.68 553.668 298.151C553.668 297.622 553.577 297.128 553.395 296.669C553.222 296.21 552.971 295.807 552.641 295.46C552.321 295.105 551.939 294.832 551.497 294.641C551.055 294.442 550.566 294.342 550.028 294.342C549.5 294.342 549.014 294.442 548.572 294.641C548.13 294.832 547.745 295.105 547.415 295.46C547.095 295.807 546.843 296.21 546.661 296.669C546.479 297.128 546.388 297.622 546.388 298.151C546.388 298.68 546.479 299.178 546.661 299.646C546.843 300.105 547.095 300.513 547.415 300.868C547.745 301.215 548.13 301.488 548.572 301.687C549.014 301.878 549.5 301.973 550.028 301.973ZM559.92 303.156C559.236 303.156 558.625 302.996 558.087 302.675C557.559 302.354 557.143 301.917 556.839 301.362C556.536 300.807 556.384 300.183 556.384 299.49C556.384 298.788 556.536 298.164 556.839 297.618C557.143 297.072 557.559 296.639 558.087 296.318C558.625 295.997 559.236 295.837 559.92 295.837C560.38 295.837 560.809 295.919 561.207 296.084C561.606 296.249 561.957 296.47 562.26 296.747C562.564 297.024 562.785 297.349 562.923 297.722L561.844 298.242C561.68 297.878 561.428 297.583 561.09 297.358C560.752 297.124 560.362 297.007 559.92 297.007C559.496 297.007 559.11 297.115 558.763 297.332C558.425 297.549 558.157 297.843 557.957 298.216C557.758 298.589 557.658 299.018 557.658 299.503C557.658 299.971 557.758 300.396 557.957 300.777C558.157 301.15 558.425 301.444 558.763 301.661C559.11 301.878 559.496 301.986 559.92 301.986C560.362 301.986 560.752 301.873 561.09 301.648C561.428 301.414 561.68 301.106 561.844 300.725L562.923 301.271C562.785 301.635 562.564 301.96 562.26 302.246C561.957 302.523 561.606 302.744 561.207 302.909C560.809 303.074 560.38 303.156 559.92 303.156ZM567.35 303.078C566.666 303.078 566.137 302.883 565.764 302.493C565.4 302.103 565.218 301.553 565.218 300.842V297.15H563.944V295.993H564.204C564.516 295.993 564.763 295.898 564.945 295.707C565.127 295.516 565.218 295.265 565.218 294.953V294.381H566.427V295.993H568V297.15H566.427V300.803C566.427 301.037 566.462 301.241 566.531 301.414C566.609 301.587 566.735 301.726 566.908 301.83C567.082 301.925 567.311 301.973 567.597 301.973C567.658 301.973 567.732 301.969 567.818 301.96C567.914 301.951 568 301.943 568.078 301.934V303C567.966 303.026 567.84 303.043 567.701 303.052C567.563 303.069 567.446 303.078 567.35 303.078Z" fill="#52525B"/>
<path d="M612.146 303V293.315H613.212L618.776 301.141L618.295 301.193V293.315H619.582V303H618.516L612.978 295.122L613.42 295.07V303H612.146ZM624.929 303.156C624.253 303.156 623.642 303 623.096 302.688C622.55 302.367 622.117 301.93 621.796 301.375C621.475 300.82 621.315 300.192 621.315 299.49C621.315 298.788 621.471 298.164 621.783 297.618C622.104 297.072 622.537 296.639 623.083 296.318C623.629 295.997 624.244 295.837 624.929 295.837C625.605 295.837 626.216 295.997 626.762 296.318C627.308 296.63 627.737 297.059 628.049 297.605C628.37 298.151 628.53 298.779 628.53 299.49C628.53 300.201 628.365 300.833 628.036 301.388C627.707 301.934 627.269 302.367 626.723 302.688C626.186 303 625.588 303.156 624.929 303.156ZM624.929 301.986C625.362 301.986 625.752 301.878 626.099 301.661C626.454 301.444 626.732 301.145 626.931 300.764C627.139 300.383 627.243 299.958 627.243 299.49C627.243 299.013 627.139 298.593 626.931 298.229C626.732 297.856 626.454 297.562 626.099 297.345C625.752 297.12 625.362 297.007 624.929 297.007C624.487 297.007 624.088 297.12 623.733 297.345C623.386 297.562 623.109 297.856 622.901 298.229C622.693 298.593 622.589 299.013 622.589 299.49C622.589 299.958 622.693 300.383 622.901 300.764C623.109 301.145 623.386 301.444 623.733 301.661C624.088 301.878 624.487 301.986 624.929 301.986ZM631.93 303L629.187 295.993H630.539L632.736 301.921H632.268L634.478 295.993H635.83L633.074 303H631.93Z" fill="#52525B"/>
<path d="M679.373 303V293.315H682.545C683.525 293.315 684.378 293.514 685.106 293.913C685.834 294.312 686.398 294.875 686.796 295.603C687.195 296.322 687.394 297.172 687.394 298.151C687.394 299.122 687.195 299.971 686.796 300.699C686.398 301.427 685.834 301.995 685.106 302.402C684.378 302.801 683.525 303 682.545 303H679.373ZM680.647 301.83H682.558C683.278 301.83 683.897 301.678 684.417 301.375C684.946 301.072 685.353 300.647 685.639 300.101C685.925 299.546 686.068 298.896 686.068 298.151C686.068 297.397 685.921 296.747 685.626 296.201C685.34 295.655 684.933 295.235 684.404 294.94C683.884 294.637 683.269 294.485 682.558 294.485H680.647V301.83ZM692.09 303.156C691.414 303.156 690.812 302.996 690.283 302.675C689.755 302.354 689.339 301.917 689.035 301.362C688.732 300.799 688.58 300.17 688.58 299.477C688.58 298.775 688.728 298.151 689.022 297.605C689.326 297.059 689.733 296.63 690.244 296.318C690.764 295.997 691.345 295.837 691.986 295.837C692.506 295.837 692.966 295.932 693.364 296.123C693.772 296.305 694.114 296.556 694.391 296.877C694.677 297.189 694.894 297.549 695.041 297.956C695.197 298.355 695.275 298.771 695.275 299.204C695.275 299.299 695.267 299.408 695.249 299.529C695.241 299.642 695.228 299.75 695.21 299.854H689.464V298.814H694.508L693.936 299.282C694.014 298.831 693.971 298.428 693.806 298.073C693.642 297.718 693.399 297.436 693.078 297.228C692.758 297.02 692.394 296.916 691.986 296.916C691.579 296.916 691.206 297.02 690.868 297.228C690.53 297.436 690.266 297.735 690.075 298.125C689.893 298.506 689.82 298.961 689.854 299.49C689.82 300.001 689.898 300.452 690.088 300.842C690.288 301.223 690.565 301.522 690.92 301.739C691.284 301.947 691.679 302.051 692.103 302.051C692.571 302.051 692.966 301.943 693.286 301.726C693.607 301.509 693.867 301.232 694.066 300.894L695.08 301.414C694.942 301.735 694.725 302.029 694.43 302.298C694.144 302.558 693.802 302.766 693.403 302.922C693.013 303.078 692.576 303.156 692.09 303.156ZM700.102 303.156C699.417 303.156 698.806 302.996 698.269 302.675C697.74 302.354 697.324 301.917 697.021 301.362C696.717 300.807 696.566 300.183 696.566 299.49C696.566 298.788 696.717 298.164 697.021 297.618C697.324 297.072 697.74 296.639 698.269 296.318C698.806 295.997 699.417 295.837 700.102 295.837C700.561 295.837 700.99 295.919 701.389 296.084C701.787 296.249 702.138 296.47 702.442 296.747C702.745 297.024 702.966 297.349 703.105 297.722L702.026 298.242C701.861 297.878 701.61 297.583 701.272 297.358C700.934 297.124 700.544 297.007 700.102 297.007C699.677 297.007 699.291 297.115 698.945 297.332C698.607 297.549 698.338 297.843 698.139 298.216C697.939 298.589 697.84 299.018 697.84 299.503C697.84 299.971 697.939 300.396 698.139 300.777C698.338 301.15 698.607 301.444 698.945 301.661C699.291 301.878 699.677 301.986 700.102 301.986C700.544 301.986 700.934 301.873 701.272 301.648C701.61 301.414 701.861 301.106 702.026 300.725L703.105 301.271C702.966 301.635 702.745 301.96 702.442 302.246C702.138 302.523 701.787 302.744 701.389 302.909C700.99 303.074 700.561 303.156 700.102 303.156Z" fill="#52525B"/>
<line x1="299.521" y1="196" x2="299.521" y2="268" stroke="#E4E4E7"/>
<circle cx="299.021" cy="186.35" r="6" fill="#F65E2C" stroke="white" stroke-width="2"/>
<path d="M29.0455 33.352V36.616H32.8855V38.104H29.0455V41.512H33.3655V43H27.2215V31.864H33.3655V33.352H29.0455ZM39.0201 41.368L41.5161 34.184H43.4521L40.0921 43H37.9161L34.5721 34.184H36.5241L39.0201 41.368ZM52.9109 38.376C52.9109 38.7067 52.8895 39.0053 52.8469 39.272H46.1109C46.1642 39.976 46.4255 40.5413 46.8949 40.968C47.3642 41.3947 47.9402 41.608 48.6229 41.608C49.6042 41.608 50.2975 41.1973 50.7029 40.376H52.6709C52.4042 41.1867 51.9189 41.8533 51.2149 42.376C50.5215 42.888 49.6575 43.144 48.6229 43.144C47.7802 43.144 47.0229 42.9573 46.3509 42.584C45.6895 42.2 45.1669 41.6667 44.7829 40.984C44.4095 40.2907 44.2229 39.4907 44.2229 38.584C44.2229 37.6773 44.4042 36.8827 44.7669 36.2C45.1402 35.5067 45.6575 34.9733 46.3189 34.6C46.9909 34.2267 47.7589 34.04 48.6229 34.04C49.4549 34.04 50.1962 34.2213 50.8469 34.584C51.4975 34.9467 52.0042 35.4587 52.3669 36.12C52.7295 36.7707 52.9109 37.5227 52.9109 38.376ZM51.0069 37.8C50.9962 37.128 50.7562 36.5893 50.2869 36.184C49.8175 35.7787 49.2362 35.576 48.5429 35.576C47.9135 35.576 47.3749 35.7787 46.9269 36.184C46.4789 36.5787 46.2122 37.1173 46.1269 37.8H51.0069ZM59.1539 34.04C59.8472 34.04 60.4659 34.184 61.0099 34.472C61.5645 34.76 61.9965 35.1867 62.3059 35.752C62.6152 36.3173 62.7699 37 62.7699 37.8V43H60.9619V38.072C60.9619 37.2827 60.7645 36.68 60.3699 36.264C59.9752 35.8373 59.4365 35.624 58.7539 35.624C58.0712 35.624 57.5272 35.8373 57.1219 36.264C56.7272 36.68 56.5299 37.2827 56.5299 38.072V43H54.7059V34.184H56.5299V35.192C56.8285 34.8293 57.2072 34.5467 57.6659 34.344C58.1352 34.1413 58.6312 34.04 59.1539 34.04ZM67.2245 35.672V40.552C67.2245 40.8827 67.2992 41.1227 67.4485 41.272C67.6085 41.4107 67.8752 41.48 68.2485 41.48H69.3685V43H67.9285C67.1072 43 66.4778 42.808 66.0405 42.424C65.6032 42.04 65.3845 41.416 65.3845 40.552V35.672H64.3445V34.184H65.3845V31.992H67.2245V34.184H69.3685V35.672H67.2245ZM80.9819 43L78.4219 38.552H77.0299V43H75.2059V31.88H79.0459C79.8992 31.88 80.6192 32.0293 81.2059 32.328C81.8032 32.6267 82.2459 33.0267 82.5339 33.528C82.8325 34.0293 82.9819 34.5893 82.9819 35.208C82.9819 35.9333 82.7685 36.5947 82.3419 37.192C81.9259 37.7787 81.2805 38.1787 80.4059 38.392L83.1579 43H80.9819ZM77.0299 37.096H79.0459C79.7285 37.096 80.2405 36.9253 80.5819 36.584C80.9339 36.2427 81.1099 35.784 81.1099 35.208C81.1099 34.632 80.9392 34.184 80.5979 33.864C80.2565 33.5333 79.7392 33.368 79.0459 33.368H77.0299V37.096ZM93.3952 38.376C93.3952 38.7067 93.3739 39.0053 93.3312 39.272H86.5952C86.6486 39.976 86.9099 40.5413 87.3792 40.968C87.8486 41.3947 88.4246 41.608 89.1072 41.608C90.0886 41.608 90.7819 41.1973 91.1872 40.376H93.1552C92.8886 41.1867 92.4032 41.8533 91.6992 42.376C91.0059 42.888 90.1419 43.144 89.1072 43.144C88.2646 43.144 87.5072 42.9573 86.8352 42.584C86.1739 42.2 85.6512 41.6667 85.2672 40.984C84.8939 40.2907 84.7072 39.4907 84.7072 38.584C84.7072 37.6773 84.8886 36.8827 85.2512 36.2C85.6246 35.5067 86.1419 34.9733 86.8032 34.6C87.4752 34.2267 88.2432 34.04 89.1072 34.04C89.9392 34.04 90.6806 34.2213 91.3312 34.584C91.9819 34.9467 92.4886 35.4587 92.8512 36.12C93.2139 36.7707 93.3952 37.5227 93.3952 38.376ZM91.4912 37.8C91.4806 37.128 91.2406 36.5893 90.7712 36.184C90.3019 35.7787 89.7206 35.576 89.0272 35.576C88.3979 35.576 87.8592 35.7787 87.4112 36.184C86.9632 36.5787 86.6966 37.1173 86.6112 37.8H91.4912ZM97.0142 35.48C97.3236 35.0747 97.7449 34.7333 98.2782 34.456C98.8116 34.1787 99.4142 34.04 100.086 34.04C100.854 34.04 101.553 34.232 102.182 34.616C102.822 34.9893 103.324 35.5173 103.686 36.2C104.049 36.8827 104.23 37.6667 104.23 38.552C104.23 39.4373 104.049 40.232 103.686 40.936C103.324 41.6293 102.822 42.1733 102.182 42.568C101.553 42.952 100.854 43.144 100.086 43.144C99.4142 43.144 98.8169 43.0107 98.2942 42.744C97.7716 42.4667 97.3449 42.1253 97.0142 41.72V47.192H95.1902V34.184H97.0142V35.48ZM102.374 38.552C102.374 37.944 102.246 37.4213 101.99 36.984C101.745 36.536 101.414 36.2 100.998 35.976C100.593 35.7413 100.156 35.624 99.6862 35.624C99.2276 35.624 98.7902 35.7413 98.3742 35.976C97.9689 36.2107 97.6382 36.552 97.3822 37C97.1369 37.448 97.0142 37.976 97.0142 38.584C97.0142 39.192 97.1369 39.7253 97.3822 40.184C97.6382 40.632 97.9689 40.9733 98.3742 41.208C98.7902 41.4427 99.2276 41.56 99.6862 41.56C100.156 41.56 100.593 41.4427 100.998 41.208C101.414 40.9627 101.745 40.6107 101.99 40.152C102.246 39.6933 102.374 39.16 102.374 38.552ZM109.858 43.144C109.026 43.144 108.274 42.9573 107.602 42.584C106.93 42.2 106.402 41.6667 106.018 40.984C105.634 40.2907 105.442 39.4907 105.442 38.584C105.442 37.688 105.639 36.8933 106.034 36.2C106.429 35.5067 106.967 34.9733 107.65 34.6C108.333 34.2267 109.095 34.04 109.938 34.04C110.781 34.04 111.543 34.2267 112.226 34.6C112.909 34.9733 113.447 35.5067 113.842 36.2C114.237 36.8933 114.434 37.688 114.434 38.584C114.434 39.48 114.231 40.2747 113.826 40.968C113.421 41.6613 112.866 42.2 112.162 42.584C111.469 42.9573 110.701 43.144 109.858 43.144ZM109.858 41.56C110.327 41.56 110.765 41.448 111.17 41.224C111.586 41 111.922 40.664 112.178 40.216C112.434 39.768 112.562 39.224 112.562 38.584C112.562 37.944 112.439 37.4053 112.194 36.968C111.949 36.52 111.623 36.184 111.218 35.96C110.813 35.736 110.375 35.624 109.906 35.624C109.437 35.624 108.999 35.736 108.594 35.96C108.199 36.184 107.885 36.52 107.65 36.968C107.415 37.4053 107.298 37.944 107.298 38.584C107.298 39.5333 107.538 40.2693 108.018 40.792C108.509 41.304 109.122 41.56 109.858 41.56ZM118.061 35.464C118.328 35.016 118.68 34.6693 119.117 34.424C119.565 34.168 120.093 34.04 120.701 34.04V35.928H120.237C119.522 35.928 118.978 36.1093 118.605 36.472C118.242 36.8347 118.061 37.464 118.061 38.36V43H116.237V34.184H118.061V35.464ZM124.506 35.672V40.552C124.506 40.8827 124.58 41.1227 124.73 41.272C124.89 41.4107 125.156 41.48 125.53 41.48H126.65V43H125.21C124.388 43 123.759 42.808 123.322 42.424C122.884 42.04 122.666 41.416 122.666 40.552V35.672H121.626V34.184H122.666V31.992H124.506V34.184H126.65V35.672H124.506Z" fill="#18181B"/>
<rect x="233.521" y="19.5" width="78" height="29" rx="4.5" fill="white"/>
<rect x="233.521" y="19.5" width="78" height="29" rx="4.5" stroke="#A1A1AA"/>
<path d="M248.24 38V31.081H246.656V29.805H249.736V38H248.24ZM251.279 38V36.867L253.501 34.546C253.941 34.084 254.279 33.7173 254.513 33.446C254.755 33.1673 254.924 32.929 255.019 32.731C255.115 32.533 255.162 32.3313 255.162 32.126C255.162 31.7813 255.052 31.51 254.832 31.312C254.62 31.114 254.345 31.015 254.007 31.015C253.655 31.015 253.351 31.1177 253.094 31.323C252.838 31.521 252.651 31.8143 252.533 32.203L251.224 31.796C251.312 31.3633 251.492 30.9893 251.763 30.674C252.035 30.3513 252.365 30.1057 252.753 29.937C253.149 29.761 253.567 29.673 254.007 29.673C254.535 29.673 254.997 29.7683 255.393 29.959C255.797 30.1497 256.108 30.4173 256.328 30.762C256.556 31.1067 256.669 31.51 256.669 31.972C256.669 32.2653 256.614 32.555 256.504 32.841C256.394 33.127 256.229 33.4203 256.009 33.721C255.789 34.0143 255.503 34.3443 255.151 34.711L253.226 36.735H256.779V38H251.279ZM260.084 38V29.805H261.514L264.583 33.974H263.901L266.904 29.805H268.334V38H266.827V31.51L267.41 31.653L264.297 35.8H264.121L261.085 31.653L261.58 31.51V38H260.084ZM272.707 38.132C272.121 38.132 271.585 37.9963 271.101 37.725C270.625 37.4537 270.243 37.0833 269.957 36.614C269.679 36.1447 269.539 35.6093 269.539 35.008C269.539 34.4067 269.679 33.8713 269.957 33.402C270.243 32.9327 270.625 32.5623 271.101 32.291C271.578 32.0197 272.113 31.884 272.707 31.884C273.294 31.884 273.826 32.0197 274.302 32.291C274.779 32.5623 275.157 32.9327 275.435 33.402C275.721 33.864 275.864 34.3993 275.864 35.008C275.864 35.6093 275.721 36.1447 275.435 36.614C275.149 37.0833 274.768 37.4537 274.291 37.725C273.815 37.9963 273.287 38.132 272.707 38.132ZM272.707 36.812C273.03 36.812 273.312 36.735 273.554 36.581C273.804 36.427 273.998 36.2143 274.137 35.943C274.284 35.6643 274.357 35.3527 274.357 35.008C274.357 34.656 274.284 34.348 274.137 34.084C273.998 33.8127 273.804 33.6 273.554 33.446C273.312 33.2847 273.03 33.204 272.707 33.204C272.377 33.204 272.088 33.2847 271.838 33.446C271.589 33.6 271.391 33.8127 271.244 34.084C271.105 34.348 271.035 34.656 271.035 35.008C271.035 35.3527 271.105 35.6643 271.244 35.943C271.391 36.2143 271.589 36.427 271.838 36.581C272.088 36.735 272.377 36.812 272.707 36.812ZM276.957 38V32.016H278.31V33.193L278.2 32.984C278.339 32.6247 278.567 32.3533 278.882 32.17C279.205 31.9793 279.579 31.884 280.004 31.884C280.444 31.884 280.833 31.9793 281.17 32.17C281.515 32.3607 281.782 32.6283 281.973 32.973C282.164 33.3103 282.259 33.7027 282.259 34.15V38H280.818V34.491C280.818 34.227 280.767 33.9997 280.664 33.809C280.561 33.6183 280.418 33.4717 280.235 33.369C280.059 33.259 279.85 33.204 279.608 33.204C279.373 33.204 279.164 33.259 278.981 33.369C278.798 33.4717 278.655 33.6183 278.552 33.809C278.449 33.9997 278.398 34.227 278.398 34.491V38H276.957ZM286.206 38.066C285.531 38.066 285.007 37.8827 284.633 37.516C284.266 37.142 284.083 36.6177 284.083 35.943V33.303H283.049V32.016H283.159C283.452 32.016 283.679 31.939 283.841 31.785C284.002 31.631 284.083 31.4073 284.083 31.114V30.652H285.524V32.016H286.899V33.303H285.524V35.866C285.524 36.064 285.557 36.2327 285.623 36.372C285.696 36.5113 285.806 36.6177 285.953 36.691C286.107 36.7643 286.301 36.801 286.536 36.801C286.587 36.801 286.646 36.7973 286.712 36.79C286.785 36.7827 286.855 36.7753 286.921 36.768V38C286.818 38.0147 286.701 38.0293 286.569 38.044C286.437 38.0587 286.316 38.066 286.206 38.066ZM288.022 38V29.673H289.463V33.193L289.265 32.984C289.404 32.6247 289.631 32.3533 289.947 32.17C290.269 31.9793 290.643 31.884 291.069 31.884C291.509 31.884 291.897 31.9793 292.235 32.17C292.579 32.3607 292.847 32.6283 293.038 32.973C293.228 33.3103 293.324 33.7027 293.324 34.15V38H291.883V34.491C291.883 34.227 291.831 33.9997 291.729 33.809C291.626 33.6183 291.483 33.4717 291.3 33.369C291.124 33.259 290.915 33.204 290.673 33.204C290.438 33.204 290.229 33.259 290.046 33.369C289.862 33.4717 289.719 33.6183 289.617 33.809C289.514 33.9997 289.463 34.227 289.463 34.491V38H288.022ZM296.819 38.132C296.181 38.132 295.624 37.9817 295.147 37.681C294.678 37.373 294.355 36.9587 294.179 36.438L295.257 35.921C295.411 36.2583 295.624 36.5223 295.895 36.713C296.174 36.9037 296.482 36.999 296.819 36.999C297.083 36.999 297.292 36.9403 297.446 36.823C297.6 36.7057 297.677 36.5517 297.677 36.361C297.677 36.2437 297.644 36.1483 297.578 36.075C297.519 35.9943 297.435 35.9283 297.325 35.877C297.222 35.8183 297.109 35.7707 296.984 35.734L296.005 35.459C295.499 35.3123 295.114 35.0887 294.85 34.788C294.593 34.4873 294.465 34.1317 294.465 33.721C294.465 33.3543 294.557 33.0353 294.74 32.764C294.931 32.4853 295.191 32.269 295.521 32.115C295.858 31.961 296.243 31.884 296.676 31.884C297.241 31.884 297.739 32.0197 298.172 32.291C298.605 32.5623 298.913 32.9437 299.096 33.435L297.996 33.952C297.893 33.6807 297.721 33.4643 297.479 33.303C297.237 33.1417 296.966 33.061 296.665 33.061C296.423 33.061 296.232 33.116 296.093 33.226C295.954 33.336 295.884 33.479 295.884 33.655C295.884 33.765 295.913 33.8603 295.972 33.941C296.031 34.0217 296.111 34.0877 296.214 34.139C296.324 34.1903 296.449 34.238 296.588 34.282L297.545 34.568C298.036 34.7147 298.414 34.9347 298.678 35.228C298.949 35.5213 299.085 35.8807 299.085 36.306C299.085 36.6653 298.99 36.9843 298.799 37.263C298.608 37.5343 298.344 37.747 298.007 37.901C297.67 38.055 297.274 38.132 296.819 38.132Z" fill="#18181B"/>
<rect x="321.021" y="19" width="76" height="30" rx="5" fill="white"/>
<path d="M338.042 38.132C337.484 38.132 336.989 38.0147 336.557 37.78C336.131 37.538 335.798 37.2153 335.556 36.812C335.314 36.4013 335.193 35.9357 335.193 35.415C335.193 35.151 335.218 34.887 335.27 34.623C335.328 34.359 335.431 34.0767 335.578 33.776C335.732 33.4753 335.952 33.1417 336.238 32.775L338.526 29.805H340.308L337.525 33.38L337.283 33.116C337.385 33.0353 337.492 32.973 337.602 32.929C337.712 32.8777 337.822 32.841 337.932 32.819C338.049 32.797 338.17 32.786 338.295 32.786C338.793 32.786 339.237 32.8997 339.626 33.127C340.014 33.3543 340.319 33.666 340.539 34.062C340.766 34.4507 340.88 34.8907 340.88 35.382C340.88 35.91 340.759 36.383 340.517 36.801C340.275 37.2117 339.937 37.538 339.505 37.78C339.079 38.0147 338.592 38.132 338.042 38.132ZM338.042 36.779C338.291 36.779 338.515 36.724 338.713 36.614C338.918 36.4967 339.079 36.3317 339.197 36.119C339.321 35.9063 339.384 35.668 339.384 35.404C339.384 35.1253 339.321 34.887 339.197 34.689C339.079 34.4837 338.922 34.3223 338.724 34.205C338.526 34.0877 338.298 34.029 338.042 34.029C337.792 34.029 337.565 34.0877 337.36 34.205C337.154 34.3223 336.989 34.4837 336.865 34.689C336.747 34.887 336.689 35.1253 336.689 35.404C336.689 35.668 336.747 35.9063 336.865 36.119C336.989 36.3317 337.154 36.4967 337.36 36.614C337.565 36.724 337.792 36.779 338.042 36.779ZM344.084 38V29.805H345.514L348.583 33.974H347.901L350.904 29.805H352.334V38H350.827V31.51L351.41 31.653L348.297 35.8H348.121L345.085 31.653L345.58 31.51V38H344.084ZM356.707 38.132C356.121 38.132 355.585 37.9963 355.101 37.725C354.625 37.4537 354.243 37.0833 353.957 36.614C353.679 36.1447 353.539 35.6093 353.539 35.008C353.539 34.4067 353.679 33.8713 353.957 33.402C354.243 32.9327 354.625 32.5623 355.101 32.291C355.578 32.0197 356.113 31.884 356.707 31.884C357.294 31.884 357.826 32.0197 358.302 32.291C358.779 32.5623 359.157 32.9327 359.435 33.402C359.721 33.864 359.864 34.3993 359.864 35.008C359.864 35.6093 359.721 36.1447 359.435 36.614C359.149 37.0833 358.768 37.4537 358.291 37.725C357.815 37.9963 357.287 38.132 356.707 38.132ZM356.707 36.812C357.03 36.812 357.312 36.735 357.554 36.581C357.804 36.427 357.998 36.2143 358.137 35.943C358.284 35.6643 358.357 35.3527 358.357 35.008C358.357 34.656 358.284 34.348 358.137 34.084C357.998 33.8127 357.804 33.6 357.554 33.446C357.312 33.2847 357.03 33.204 356.707 33.204C356.377 33.204 356.088 33.2847 355.838 33.446C355.589 33.6 355.391 33.8127 355.244 34.084C355.105 34.348 355.035 34.656 355.035 35.008C355.035 35.3527 355.105 35.6643 355.244 35.943C355.391 36.2143 355.589 36.427 355.838 36.581C356.088 36.735 356.377 36.812 356.707 36.812ZM360.957 38V32.016H362.31V33.193L362.2 32.984C362.339 32.6247 362.567 32.3533 362.882 32.17C363.205 31.9793 363.579 31.884 364.004 31.884C364.444 31.884 364.833 31.9793 365.17 32.17C365.515 32.3607 365.782 32.6283 365.973 32.973C366.164 33.3103 366.259 33.7027 366.259 34.15V38H364.818V34.491C364.818 34.227 364.767 33.9997 364.664 33.809C364.561 33.6183 364.418 33.4717 364.235 33.369C364.059 33.259 363.85 33.204 363.608 33.204C363.373 33.204 363.164 33.259 362.981 33.369C362.798 33.4717 362.655 33.6183 362.552 33.809C362.449 33.9997 362.398 34.227 362.398 34.491V38H360.957ZM370.206 38.066C369.531 38.066 369.007 37.8827 368.633 37.516C368.266 37.142 368.083 36.6177 368.083 35.943V33.303H367.049V32.016H367.159C367.452 32.016 367.679 31.939 367.841 31.785C368.002 31.631 368.083 31.4073 368.083 31.114V30.652H369.524V32.016H370.899V33.303H369.524V35.866C369.524 36.064 369.557 36.2327 369.623 36.372C369.696 36.5113 369.806 36.6177 369.953 36.691C370.107 36.7643 370.301 36.801 370.536 36.801C370.587 36.801 370.646 36.7973 370.712 36.79C370.785 36.7827 370.855 36.7753 370.921 36.768V38C370.818 38.0147 370.701 38.0293 370.569 38.044C370.437 38.0587 370.316 38.066 370.206 38.066ZM372.022 38V29.673H373.463V33.193L373.265 32.984C373.404 32.6247 373.631 32.3533 373.947 32.17C374.269 31.9793 374.643 31.884 375.069 31.884C375.509 31.884 375.897 31.9793 376.235 32.17C376.579 32.3607 376.847 32.6283 377.038 32.973C377.228 33.3103 377.324 33.7027 377.324 34.15V38H375.883V34.491C375.883 34.227 375.831 33.9997 375.729 33.809C375.626 33.6183 375.483 33.4717 375.3 33.369C375.124 33.259 374.915 33.204 374.673 33.204C374.438 33.204 374.229 33.259 374.046 33.369C373.862 33.4717 373.719 33.6183 373.617 33.809C373.514 33.9997 373.463 34.227 373.463 34.491V38H372.022ZM380.819 38.132C380.181 38.132 379.624 37.9817 379.147 37.681C378.678 37.373 378.355 36.9587 378.179 36.438L379.257 35.921C379.411 36.2583 379.624 36.5223 379.895 36.713C380.174 36.9037 380.482 36.999 380.819 36.999C381.083 36.999 381.292 36.9403 381.446 36.823C381.6 36.7057 381.677 36.5517 381.677 36.361C381.677 36.2437 381.644 36.1483 381.578 36.075C381.519 35.9943 381.435 35.9283 381.325 35.877C381.222 35.8183 381.109 35.7707 380.984 35.734L380.005 35.459C379.499 35.3123 379.114 35.0887 378.85 34.788C378.593 34.4873 378.465 34.1317 378.465 33.721C378.465 33.3543 378.557 33.0353 378.74 32.764C378.931 32.4853 379.191 32.269 379.521 32.115C379.858 31.961 380.243 31.884 380.676 31.884C381.241 31.884 381.739 32.0197 382.172 32.291C382.605 32.5623 382.913 32.9437 383.096 33.435L381.996 33.952C381.893 33.6807 381.721 33.4643 381.479 33.303C381.237 33.1417 380.966 33.061 380.665 33.061C380.423 33.061 380.232 33.116 380.093 33.226C379.954 33.336 379.884 33.479 379.884 33.655C379.884 33.765 379.913 33.8603 379.972 33.941C380.031 34.0217 380.111 34.0877 380.214 34.139C380.324 34.1903 380.449 34.238 380.588 34.282L381.545 34.568C382.036 34.7147 382.414 34.9347 382.678 35.228C382.949 35.5213 383.085 35.8807 383.085 36.306C383.085 36.6653 382.99 36.9843 382.799 37.263C382.608 37.5343 382.344 37.747 382.007 37.901C381.67 38.055 381.274 38.132 380.819 38.132Z" fill="#71717A"/>
<rect x="406.021" y="19" width="76" height="30" rx="5" fill="white"/>
<path d="M426.179 38.132C425.732 38.132 425.306 38.0513 424.903 37.89C424.507 37.7213 424.166 37.4867 423.88 37.186C423.601 36.878 423.411 36.515 423.308 36.097L424.617 35.635C424.749 36.009 424.951 36.295 425.222 36.493C425.493 36.6837 425.812 36.779 426.179 36.779C426.472 36.779 426.725 36.724 426.938 36.614C427.158 36.504 427.33 36.3463 427.455 36.141C427.58 35.9283 427.642 35.679 427.642 35.393C427.642 35.107 427.58 34.865 427.455 34.667C427.338 34.4617 427.169 34.304 426.949 34.194C426.729 34.084 426.469 34.029 426.168 34.029C426.029 34.029 425.882 34.0437 425.728 34.073C425.581 34.1023 425.449 34.1463 425.332 34.205L424.991 33.49L427.114 31.07H423.77V29.805H428.797V30.982L426.663 33.479L426.685 32.918C427.176 32.9253 427.605 33.0317 427.972 33.237C428.339 33.4423 428.625 33.7247 428.83 34.084C429.035 34.4433 429.138 34.865 429.138 35.349C429.138 35.877 429.01 36.3537 428.753 36.779C428.496 37.197 428.144 37.527 427.697 37.769C427.25 38.011 426.744 38.132 426.179 38.132ZM433.575 38.132C432.922 38.132 432.35 37.956 431.859 37.604C431.367 37.252 430.982 36.757 430.704 36.119C430.432 35.481 430.297 34.7403 430.297 33.897C430.297 33.0463 430.432 32.3057 430.704 31.675C430.975 31.0443 431.356 30.553 431.848 30.201C432.339 29.849 432.911 29.673 433.564 29.673C434.231 29.673 434.807 29.849 435.291 30.201C435.782 30.553 436.167 31.048 436.446 31.686C436.724 32.3167 436.864 33.0537 436.864 33.897C436.864 34.7403 436.724 35.481 436.446 36.119C436.174 36.7497 435.793 37.2447 435.302 37.604C434.81 37.956 434.235 38.132 433.575 38.132ZM433.586 36.768C433.96 36.768 434.279 36.6543 434.543 36.427C434.807 36.1923 435.008 35.8623 435.148 35.437C435.294 35.0043 435.368 34.491 435.368 33.897C435.368 33.303 435.294 32.7933 435.148 32.368C435.008 31.9353 434.803 31.6053 434.532 31.378C434.268 31.1507 433.945 31.037 433.564 31.037C433.197 31.037 432.882 31.1507 432.618 31.378C432.354 31.6053 432.148 31.9353 432.002 32.368C431.862 32.7933 431.793 33.303 431.793 33.897C431.793 34.4837 431.862 34.9933 432.002 35.426C432.148 35.8513 432.354 36.1813 432.618 36.416C432.889 36.6507 433.212 36.768 433.586 36.768ZM440.216 38V29.805H442.889C443.754 29.805 444.506 29.981 445.144 30.333C445.789 30.6777 446.288 31.158 446.64 31.774C446.992 32.3827 447.168 33.0903 447.168 33.897C447.168 34.6963 446.992 35.4077 446.64 36.031C446.288 36.647 445.789 37.131 445.144 37.483C444.506 37.8277 443.754 38 442.889 38H440.216ZM441.712 36.68H442.922C443.479 36.68 443.959 36.5663 444.363 36.339C444.773 36.1043 445.092 35.7817 445.32 35.371C445.547 34.953 445.661 34.4617 445.661 33.897C445.661 33.325 445.547 32.8337 445.32 32.423C445.092 32.0123 444.773 31.6933 444.363 31.466C443.959 31.2387 443.479 31.125 442.922 31.125H441.712V36.68ZM450.031 38.132C449.613 38.132 449.25 38.0623 448.942 37.923C448.634 37.7837 448.396 37.5857 448.227 37.329C448.058 37.065 447.974 36.7607 447.974 36.416C447.974 36.086 448.047 35.7927 448.194 35.536C448.341 35.272 448.568 35.052 448.876 34.876C449.184 34.7 449.573 34.5753 450.042 34.502L452 34.183V35.283L450.317 35.569C450.031 35.6203 449.818 35.712 449.679 35.844C449.54 35.976 449.47 36.1483 449.47 36.361C449.47 36.5663 449.547 36.7313 449.701 36.856C449.862 36.9733 450.06 37.032 450.295 37.032C450.596 37.032 450.86 36.9697 451.087 36.845C451.322 36.713 451.501 36.5333 451.626 36.306C451.758 36.0787 451.824 35.8293 451.824 35.558V34.018C451.824 33.7613 451.721 33.5487 451.516 33.38C451.318 33.204 451.054 33.116 450.724 33.116C450.416 33.116 450.141 33.2003 449.899 33.369C449.664 33.5303 449.492 33.7467 449.382 34.018L448.205 33.446C448.322 33.1307 448.506 32.8593 448.755 32.632C449.012 32.3973 449.312 32.214 449.657 32.082C450.002 31.95 450.376 31.884 450.779 31.884C451.27 31.884 451.703 31.9757 452.077 32.159C452.451 32.335 452.741 32.5843 452.946 32.907C453.159 33.2223 453.265 33.5927 453.265 34.018V38H451.901V36.977L452.209 36.955C452.055 37.2117 451.872 37.428 451.659 37.604C451.446 37.7727 451.204 37.9047 450.933 38C450.662 38.088 450.361 38.132 450.031 38.132ZM455.323 40.42C455.161 40.42 455.004 40.4053 454.85 40.376C454.696 40.354 454.556 40.31 454.432 40.244V39.045C454.527 39.067 454.641 39.089 454.773 39.111C454.912 39.133 455.04 39.144 455.158 39.144C455.488 39.144 455.726 39.067 455.873 38.913C456.027 38.7663 456.162 38.5683 456.28 38.319L456.676 37.395L456.654 38.605L454.047 32.016H455.598L457.424 36.878H456.874L458.689 32.016H460.251L457.644 38.605C457.49 38.9863 457.303 39.3127 457.083 39.584C456.863 39.8553 456.606 40.0607 456.313 40.2C456.027 40.3467 455.697 40.42 455.323 40.42ZM463.319 38.132C462.681 38.132 462.124 37.9817 461.647 37.681C461.178 37.373 460.855 36.9587 460.679 36.438L461.757 35.921C461.911 36.2583 462.124 36.5223 462.395 36.713C462.674 36.9037 462.982 36.999 463.319 36.999C463.583 36.999 463.792 36.9403 463.946 36.823C464.1 36.7057 464.177 36.5517 464.177 36.361C464.177 36.2437 464.144 36.1483 464.078 36.075C464.019 35.9943 463.935 35.9283 463.825 35.877C463.722 35.8183 463.609 35.7707 463.484 35.734L462.505 35.459C461.999 35.3123 461.614 35.0887 461.35 34.788C461.093 34.4873 460.965 34.1317 460.965 33.721C460.965 33.3543 461.057 33.0353 461.24 32.764C461.431 32.4853 461.691 32.269 462.021 32.115C462.358 31.961 462.743 31.884 463.176 31.884C463.741 31.884 464.239 32.0197 464.672 32.291C465.105 32.5623 465.413 32.9437 465.596 33.435L464.496 33.952C464.393 33.6807 464.221 33.4643 463.979 33.303C463.737 33.1417 463.466 33.061 463.165 33.061C462.923 33.061 462.732 33.116 462.593 33.226C462.454 33.336 462.384 33.479 462.384 33.655C462.384 33.765 462.413 33.8603 462.472 33.941C462.531 34.0217 462.611 34.0877 462.714 34.139C462.824 34.1903 462.949 34.238 463.088 34.282L464.045 34.568C464.536 34.7147 464.914 34.9347 465.178 35.228C465.449 35.5213 465.585 35.8807 465.585 36.306C465.585 36.6653 465.49 36.9843 465.299 37.263C465.108 37.5343 464.844 37.747 464.507 37.901C464.17 38.055 463.774 38.132 463.319 38.132Z" fill="#71717A"/>
<rect x="491.021" y="19" width="76" height="30" rx="5" fill="white"/>
<path d="M512.616 38L516.026 31.07H512.165V29.805H517.599V31.07L514.266 38H512.616ZM520.716 38V29.805H523.389C524.254 29.805 525.006 29.981 525.644 30.333C526.289 30.6777 526.788 31.158 527.14 31.774C527.492 32.3827 527.668 33.0903 527.668 33.897C527.668 34.6963 527.492 35.4077 527.14 36.031C526.788 36.647 526.289 37.131 525.644 37.483C525.006 37.8277 524.254 38 523.389 38H520.716ZM522.212 36.68H523.422C523.979 36.68 524.459 36.5663 524.863 36.339C525.273 36.1043 525.592 35.7817 525.82 35.371C526.047 34.953 526.161 34.4617 526.161 33.897C526.161 33.325 526.047 32.8337 525.82 32.423C525.592 32.0123 525.273 31.6933 524.863 31.466C524.459 31.2387 523.979 31.125 523.422 31.125H522.212V36.68ZM530.531 38.132C530.113 38.132 529.75 38.0623 529.442 37.923C529.134 37.7837 528.896 37.5857 528.727 37.329C528.558 37.065 528.474 36.7607 528.474 36.416C528.474 36.086 528.547 35.7927 528.694 35.536C528.841 35.272 529.068 35.052 529.376 34.876C529.684 34.7 530.073 34.5753 530.542 34.502L532.5 34.183V35.283L530.817 35.569C530.531 35.6203 530.318 35.712 530.179 35.844C530.04 35.976 529.97 36.1483 529.97 36.361C529.97 36.5663 530.047 36.7313 530.201 36.856C530.362 36.9733 530.56 37.032 530.795 37.032C531.096 37.032 531.36 36.9697 531.587 36.845C531.822 36.713 532.001 36.5333 532.126 36.306C532.258 36.0787 532.324 35.8293 532.324 35.558V34.018C532.324 33.7613 532.221 33.5487 532.016 33.38C531.818 33.204 531.554 33.116 531.224 33.116C530.916 33.116 530.641 33.2003 530.399 33.369C530.164 33.5303 529.992 33.7467 529.882 34.018L528.705 33.446C528.822 33.1307 529.006 32.8593 529.255 32.632C529.512 32.3973 529.812 32.214 530.157 32.082C530.502 31.95 530.876 31.884 531.279 31.884C531.77 31.884 532.203 31.9757 532.577 32.159C532.951 32.335 533.241 32.5843 533.446 32.907C533.659 33.2223 533.765 33.5927 533.765 34.018V38H532.401V36.977L532.709 36.955C532.555 37.2117 532.372 37.428 532.159 37.604C531.946 37.7727 531.704 37.9047 531.433 38C531.162 38.088 530.861 38.132 530.531 38.132ZM535.823 40.42C535.661 40.42 535.504 40.4053 535.35 40.376C535.196 40.354 535.056 40.31 534.932 40.244V39.045C535.027 39.067 535.141 39.089 535.273 39.111C535.412 39.133 535.54 39.144 535.658 39.144C535.988 39.144 536.226 39.067 536.373 38.913C536.527 38.7663 536.662 38.5683 536.78 38.319L537.176 37.395L537.154 38.605L534.547 32.016H536.098L537.924 36.878H537.374L539.189 32.016H540.751L538.144 38.605C537.99 38.9863 537.803 39.3127 537.583 39.584C537.363 39.8553 537.106 40.0607 536.813 40.2C536.527 40.3467 536.197 40.42 535.823 40.42ZM543.819 38.132C543.181 38.132 542.624 37.9817 542.147 37.681C541.678 37.373 541.355 36.9587 541.179 36.438L542.257 35.921C542.411 36.2583 542.624 36.5223 542.895 36.713C543.174 36.9037 543.482 36.999 543.819 36.999C544.083 36.999 544.292 36.9403 544.446 36.823C544.6 36.7057 544.677 36.5517 544.677 36.361C544.677 36.2437 544.644 36.1483 544.578 36.075C544.519 35.9943 544.435 35.9283 544.325 35.877C544.222 35.8183 544.109 35.7707 543.984 35.734L543.005 35.459C542.499 35.3123 542.114 35.0887 541.85 34.788C541.593 34.4873 541.465 34.1317 541.465 33.721C541.465 33.3543 541.557 33.0353 541.74 32.764C541.931 32.4853 542.191 32.269 542.521 32.115C542.858 31.961 543.243 31.884 543.676 31.884C544.241 31.884 544.739 32.0197 545.172 32.291C545.605 32.5623 545.913 32.9437 546.096 33.435L544.996 33.952C544.893 33.6807 544.721 33.4643 544.479 33.303C544.237 33.1417 543.966 33.061 543.665 33.061C543.423 33.061 543.232 33.116 543.093 33.226C542.954 33.336 542.884 33.479 542.884 33.655C542.884 33.765 542.913 33.8603 542.972 33.941C543.031 34.0217 543.111 34.0877 543.214 34.139C543.324 34.1903 543.449 34.238 543.588 34.282L544.545 34.568C545.036 34.7147 545.414 34.9347 545.678 35.228C545.949 35.5213 546.085 35.8807 546.085 36.306C546.085 36.6653 545.99 36.9843 545.799 37.263C545.608 37.5343 545.344 37.747 545.007 37.901C544.67 38.055 544.274 38.132 543.819 38.132Z" fill="#71717A"/>
</svg>
