<svg width="733" height="330" viewBox="0 0 733 330" fill="none" xmlns="http://www.w3.org/2000/svg">
<rect x="1.13477" y="1" width="730.979" height="328" rx="10" fill="white" stroke="#E4E4E7"/>
<line x1="25.1348" y1="268.5" x2="732.113" y2="268.5" stroke="#F4F4F5"/>
<line x1="25.1348" y1="228.5" x2="732.113" y2="228.5" stroke="#F4F4F5"/>
<line x1="25.1348" y1="188.5" x2="732.113" y2="188.5" stroke="#F4F4F5"/>
<line x1="25.1348" y1="148.5" x2="732.113" y2="148.5" stroke="#F4F4F5"/>
<line x1="25.1348" y1="108.5" x2="732.113" y2="108.5" stroke="#F4F4F5"/>
<mask id="mask0_617_81" style="mask-type:alpha" maskUnits="userSpaceOnUse" x="25" y="79" width="708" height="189">
<rect x="25.1348" y="79" width="706.979" height="189" fill="white"/>
</mask>
<g mask="url(#mask0_617_81)">
<path d="M21.8717 221C11.5033 225.8 3.72689 227.667 1.13477 228V269H732.113V119C721.457 129.667 695.996 149.8 679.407 145C658.67 139 635.341 140 619.788 145C604.235 150 594.731 157 577.45 158C560.169 159 565.353 154 538.568 151C511.783 148 500.55 177 487.59 185C474.629 193 441.796 191 429.699 185C417.602 179 407.234 177 397.73 177C388.225 177 388.225 184 374.4 185C360.576 186 346.751 176 327.742 177C308.733 178 282.812 197 262.939 198C243.066 199 255.163 193 226.649 191C198.136 189 175.671 215 157.526 221C139.381 227 112.596 214 97.9073 210C83.2186 206 69.394 221 58.1615 221C46.9289 221 34.8324 215 21.8717 221Z" fill="#FFF5F2" stroke="#F65E2C" stroke-width="2"/>
<path d="M-50.319 247.5H-82.8652V275H781.135V175C780.118 178.333 777.982 185.5 777.575 187.5C777.066 190 767.913 196.5 763.336 193.5C758.759 190.5 749.097 190 744.012 191.5C738.926 193 739.943 190 730.281 187.5C720.619 185 717.568 193 712.483 194.5C707.397 196 699.769 193 696.21 190L696.057 189.871C692.518 186.887 687.892 182.986 675.36 182C662.646 181 660.104 196.5 655.018 202C649.933 207.5 638.237 204.5 635.185 203.5C632.134 202.5 629.591 199 619.929 202C610.267 205 601.114 215.5 589.417 216C577.721 216.5 567.55 208.5 559.414 208.5C551.277 208.5 553.82 210 542.632 212.5C531.444 215 512.12 208.5 505.509 206C498.898 203.5 490.253 206 485.676 208.5C481.099 211 464.826 211.5 460.25 210C455.673 208.5 442.451 205 439.4 208.5C436.348 212 422.618 206 418.55 206C414.481 206 416.516 202.5 405.836 200.5C395.157 198.5 388.038 208.5 384.986 210C381.935 211.5 376.341 209 371.256 206C366.171 203 345.321 200 333.116 202.5C320.911 205 319.894 212.5 311.757 213.5C303.621 214.5 300.061 221.5 295.993 221.5C291.925 221.5 289.382 221.5 285.822 219.5C282.262 217.5 273.617 219.5 270.058 221.5C266.498 223.5 260.396 224.5 253.276 225C246.157 225.5 242.088 221 236.494 219.5C230.901 218 223.272 217 209.034 217.5C194.795 218 195.303 227 180.556 230.5C165.808 234 155.129 229.5 144.958 228C134.788 226.5 126.142 233.5 121.566 236C116.989 238.5 106.818 236 96.6474 233.5C86.4767 231 82.4085 236 80.8829 236C79.3573 236 72.2378 242.5 64.1012 236C55.9647 229.5 52.4049 231.5 49.3537 231.5C46.3025 231.5 44.2684 235 39.6916 233.5C35.1148 232 35.1148 227.5 27.4867 228C19.8587 228.5 14.2648 239 11.7222 240.5C9.1795 242 3.58562 244 -0.482658 244.5C-4.55093 245 -4.55093 242.5 -16.7558 241.5C-28.9606 240.5 -36.0801 247.5 -50.319 247.5Z" fill="#FFF0EB" stroke="#EFA891" stroke-width="2"/>
</g>
<path d="M27.2138 303V293.315H33.3498V294.485H28.4878V297.618H32.8948V298.788H28.4878V303H27.2138ZM37.658 303.156C36.982 303.156 36.3797 302.996 35.851 302.675C35.3224 302.354 34.9064 301.917 34.603 301.362C34.2997 300.799 34.148 300.17 34.148 299.477C34.148 298.775 34.2954 298.151 34.59 297.605C34.8934 297.059 35.3007 296.63 35.812 296.318C36.332 295.997 36.9127 295.837 37.554 295.837C38.074 295.837 38.5334 295.932 38.932 296.123C39.3394 296.305 39.6817 296.556 39.959 296.877C40.245 297.189 40.4617 297.549 40.609 297.956C40.765 298.355 40.843 298.771 40.843 299.204C40.843 299.299 40.8344 299.408 40.817 299.529C40.8084 299.642 40.7954 299.75 40.778 299.854H35.032V298.814H40.076L39.504 299.282C39.582 298.831 39.5387 298.428 39.374 298.073C39.2094 297.718 38.9667 297.436 38.646 297.228C38.3254 297.02 37.9614 296.916 37.554 296.916C37.1467 296.916 36.774 297.02 36.436 297.228C36.098 297.436 35.8337 297.735 35.643 298.125C35.461 298.506 35.3874 298.961 35.422 299.49C35.3874 300.001 35.4654 300.452 35.656 300.842C35.8554 301.223 36.1327 301.522 36.488 301.739C36.852 301.947 37.2464 302.051 37.671 302.051C38.139 302.051 38.5334 301.943 38.854 301.726C39.1747 301.509 39.4347 301.232 39.634 300.894L40.648 301.414C40.5094 301.735 40.2927 302.029 39.998 302.298C39.712 302.558 39.3697 302.766 38.971 302.922C38.581 303.078 38.1434 303.156 37.658 303.156ZM46.0464 303.156C45.4831 303.156 44.9674 303.03 44.4994 302.779C44.0401 302.528 43.6847 302.172 43.4334 301.713L43.6024 301.505V303H42.4194V293.159H43.6284V297.501L43.4464 297.202C43.7064 296.786 44.0617 296.457 44.5124 296.214C44.9631 295.963 45.4787 295.837 46.0594 295.837C46.7181 295.837 47.3074 295.997 47.8274 296.318C48.3561 296.639 48.7721 297.076 49.0754 297.631C49.3787 298.177 49.5304 298.801 49.5304 299.503C49.5304 300.188 49.3787 300.807 49.0754 301.362C48.7721 301.917 48.3561 302.354 47.8274 302.675C47.3074 302.996 46.7137 303.156 46.0464 303.156ZM45.9554 301.986C46.3974 301.986 46.7917 301.878 47.1384 301.661C47.4851 301.444 47.7537 301.15 47.9444 300.777C48.1437 300.396 48.2434 299.971 48.2434 299.503C48.2434 299.018 48.1437 298.593 47.9444 298.229C47.7537 297.856 47.4851 297.562 47.1384 297.345C46.7917 297.12 46.3974 297.007 45.9554 297.007C45.5134 297.007 45.1147 297.115 44.7594 297.332C44.4127 297.549 44.1354 297.848 43.9274 298.229C43.7281 298.602 43.6284 299.026 43.6284 299.503C43.6284 299.971 43.7281 300.396 43.9274 300.777C44.1354 301.15 44.4127 301.444 44.7594 301.661C45.1147 301.878 45.5134 301.986 45.9554 301.986Z" fill="#52525B"/>
<path d="M93.642 303V293.315H94.812L98.439 298.476H97.841L101.442 293.315H102.612V303H101.325V294.927L101.78 295.07L98.179 300.14H98.075L94.513 295.07L94.916 294.927V303H93.642ZM106.674 303.156C106.215 303.156 105.807 303.074 105.452 302.909C105.105 302.736 104.832 302.502 104.633 302.207C104.434 301.904 104.334 301.557 104.334 301.167C104.334 300.794 104.412 300.461 104.568 300.166C104.733 299.863 104.984 299.607 105.322 299.399C105.669 299.191 106.102 299.044 106.622 298.957L109.222 298.528V299.542L106.895 299.932C106.444 300.01 106.115 300.153 105.907 300.361C105.708 300.569 105.608 300.825 105.608 301.128C105.608 301.414 105.721 301.652 105.946 301.843C106.18 302.034 106.47 302.129 106.817 302.129C107.259 302.129 107.64 302.038 107.961 301.856C108.29 301.665 108.546 301.41 108.728 301.089C108.919 300.768 109.014 300.413 109.014 300.023V298.242C109.014 297.861 108.871 297.553 108.585 297.319C108.308 297.076 107.939 296.955 107.48 296.955C107.081 296.955 106.726 297.059 106.414 297.267C106.111 297.466 105.885 297.735 105.738 298.073L104.685 297.527C104.815 297.206 105.023 296.92 105.309 296.669C105.595 296.409 105.929 296.205 106.31 296.058C106.691 295.911 107.09 295.837 107.506 295.837C108.043 295.837 108.516 295.941 108.923 296.149C109.33 296.348 109.647 296.63 109.872 296.994C110.106 297.349 110.223 297.765 110.223 298.242V303H109.04V301.674L109.261 301.752C109.114 302.029 108.914 302.272 108.663 302.48C108.412 302.688 108.117 302.853 107.779 302.974C107.441 303.095 107.073 303.156 106.674 303.156ZM112.098 303V295.993H113.281V297.28L113.151 297.098C113.315 296.699 113.567 296.405 113.905 296.214C114.243 296.015 114.654 295.915 115.14 295.915H115.569V297.059H114.958C114.464 297.059 114.065 297.215 113.762 297.527C113.458 297.83 113.307 298.264 113.307 298.827V303H112.098Z" fill="#52525B"/>
<path d="M158.29 303L161.761 293.315H163.269L166.74 303H165.375L164.582 300.725H160.448L159.655 303H158.29ZM160.851 299.555H164.179L162.333 294.238H162.697L160.851 299.555ZM167.817 305.6V295.993H169V297.501L168.844 297.202C169.104 296.786 169.46 296.457 169.91 296.214C170.361 295.963 170.877 295.837 171.457 295.837C172.116 295.837 172.705 295.997 173.225 296.318C173.754 296.639 174.17 297.076 174.473 297.631C174.777 298.177 174.928 298.801 174.928 299.503C174.928 300.188 174.777 300.807 174.473 301.362C174.17 301.917 173.754 302.354 173.225 302.675C172.705 302.996 172.112 303.156 171.444 303.156C170.881 303.156 170.365 303.03 169.897 302.779C169.438 302.528 169.083 302.172 168.831 301.713L169.026 301.505V305.6H167.817ZM171.353 301.986C171.795 301.986 172.19 301.878 172.536 301.661C172.883 301.444 173.152 301.15 173.342 300.777C173.542 300.396 173.641 299.971 173.641 299.503C173.641 299.018 173.542 298.593 173.342 298.229C173.152 297.856 172.883 297.562 172.536 297.345C172.19 297.12 171.795 297.007 171.353 297.007C170.911 297.007 170.513 297.115 170.157 297.332C169.811 297.549 169.533 297.848 169.325 298.229C169.126 298.602 169.026 299.026 169.026 299.503C169.026 299.971 169.126 300.396 169.325 300.777C169.533 301.15 169.811 301.444 170.157 301.661C170.513 301.878 170.911 301.986 171.353 301.986ZM176.514 303V295.993H177.697V297.28L177.567 297.098C177.731 296.699 177.983 296.405 178.321 296.214C178.659 296.015 179.07 295.915 179.556 295.915H179.985V297.059H179.374C178.88 297.059 178.481 297.215 178.178 297.527C177.874 297.83 177.723 298.264 177.723 298.827V303H176.514Z" fill="#52525B"/>
<path d="M223.322 303V293.315H224.492L228.119 298.476H227.521L231.122 293.315H232.292V303H231.005V294.927L231.46 295.07L227.859 300.14H227.755L224.193 295.07L224.596 294.927V303H223.322ZM236.354 303.156C235.894 303.156 235.487 303.074 235.132 302.909C234.785 302.736 234.512 302.502 234.313 302.207C234.113 301.904 234.014 301.557 234.014 301.167C234.014 300.794 234.092 300.461 234.248 300.166C234.412 299.863 234.664 299.607 235.002 299.399C235.348 299.191 235.782 299.044 236.302 298.957L238.902 298.528V299.542L236.575 299.932C236.124 300.01 235.795 300.153 235.587 300.361C235.387 300.569 235.288 300.825 235.288 301.128C235.288 301.414 235.4 301.652 235.626 301.843C235.86 302.034 236.15 302.129 236.497 302.129C236.939 302.129 237.32 302.038 237.641 301.856C237.97 301.665 238.226 301.41 238.408 301.089C238.598 300.768 238.694 300.413 238.694 300.023V298.242C238.694 297.861 238.551 297.553 238.265 297.319C237.987 297.076 237.619 296.955 237.16 296.955C236.761 296.955 236.406 297.059 236.094 297.267C235.79 297.466 235.565 297.735 235.418 298.073L234.365 297.527C234.495 297.206 234.703 296.92 234.989 296.669C235.275 296.409 235.608 296.205 235.99 296.058C236.371 295.911 236.77 295.837 237.186 295.837C237.723 295.837 238.195 295.941 238.603 296.149C239.01 296.348 239.326 296.63 239.552 296.994C239.786 297.349 239.903 297.765 239.903 298.242V303H238.72V301.674L238.941 301.752C238.793 302.029 238.594 302.272 238.343 302.48C238.091 302.688 237.797 302.853 237.459 302.974C237.121 303.095 236.752 303.156 236.354 303.156ZM242.154 305.86C241.998 305.86 241.842 305.847 241.686 305.821C241.53 305.795 241.383 305.752 241.244 305.691V304.612C241.34 304.629 241.457 304.647 241.595 304.664C241.743 304.69 241.886 304.703 242.024 304.703C242.432 304.703 242.739 304.612 242.947 304.43C243.164 304.257 243.368 303.953 243.558 303.52L244 302.467L243.974 303.52L240.984 295.993H242.297L244.624 301.973H244.234L246.548 295.993H247.887L244.728 303.832C244.581 304.205 244.39 304.543 244.156 304.846C243.931 305.158 243.654 305.405 243.324 305.587C242.995 305.769 242.605 305.86 242.154 305.86Z" fill="#52525B"/>
<path d="M291.236 303V301.765H291.769C292.229 301.765 292.593 301.631 292.861 301.362C293.13 301.085 293.264 300.712 293.264 300.244V293.315H294.551V300.218C294.551 300.781 294.434 301.271 294.2 301.687C293.975 302.103 293.654 302.428 293.238 302.662C292.822 302.887 292.333 303 291.769 303H291.236ZM299.02 303.156C298.517 303.156 298.062 303.039 297.655 302.805C297.256 302.571 296.944 302.246 296.719 301.83C296.502 301.405 296.394 300.92 296.394 300.374V295.993H297.603V300.244C297.603 300.591 297.672 300.894 297.811 301.154C297.958 301.414 298.158 301.618 298.409 301.765C298.669 301.912 298.964 301.986 299.293 301.986C299.622 301.986 299.913 301.912 300.164 301.765C300.424 301.618 300.623 301.405 300.762 301.128C300.909 300.851 300.983 300.521 300.983 300.14V295.993H302.205V303H301.022V301.635L301.217 301.752C301.052 302.194 300.771 302.541 300.372 302.792C299.982 303.035 299.531 303.156 299.02 303.156ZM304.078 303V295.993H305.261V297.358L305.066 297.241C305.239 296.799 305.517 296.457 305.898 296.214C306.288 295.963 306.743 295.837 307.263 295.837C307.766 295.837 308.212 295.95 308.602 296.175C309.001 296.4 309.313 296.712 309.538 297.111C309.772 297.51 309.889 297.96 309.889 298.463V303H308.667V298.853C308.667 298.463 308.598 298.134 308.459 297.865C308.32 297.596 308.121 297.388 307.861 297.241C307.61 297.085 307.319 297.007 306.99 297.007C306.661 297.007 306.366 297.085 306.106 297.241C305.855 297.388 305.655 297.601 305.508 297.878C305.361 298.147 305.287 298.472 305.287 298.853V303H304.078Z" fill="#52525B"/>
<path d="M351.964 303V301.765H352.497C352.957 301.765 353.321 301.631 353.589 301.362C353.858 301.085 353.992 300.712 353.992 300.244V293.315H355.279V300.218C355.279 300.781 355.162 301.271 354.928 301.687C354.703 302.103 354.382 302.428 353.966 302.662C353.55 302.887 353.061 303 352.497 303H351.964ZM359.748 303.156C359.245 303.156 358.79 303.039 358.383 302.805C357.984 302.571 357.672 302.246 357.447 301.83C357.23 301.405 357.122 300.92 357.122 300.374V295.993H358.331V300.244C358.331 300.591 358.4 300.894 358.539 301.154C358.686 301.414 358.886 301.618 359.137 301.765C359.397 301.912 359.692 301.986 360.021 301.986C360.35 301.986 360.641 301.912 360.892 301.765C361.152 301.618 361.351 301.405 361.49 301.128C361.637 300.851 361.711 300.521 361.711 300.14V295.993H362.933V303H361.75V301.635L361.945 301.752C361.78 302.194 361.499 302.541 361.1 302.792C360.71 303.035 360.259 303.156 359.748 303.156ZM364.806 303V293.159H366.015V303H364.806Z" fill="#52525B"/>
<path d="M409.419 303L412.89 293.315H414.398L417.869 303H416.504L415.711 300.725H411.577L410.784 303H409.419ZM411.98 299.555H415.308L413.462 294.238H413.826L411.98 299.555ZM421.302 303.156C420.8 303.156 420.345 303.039 419.937 302.805C419.539 302.571 419.227 302.246 419.001 301.83C418.785 301.405 418.676 300.92 418.676 300.374V295.993H419.885V300.244C419.885 300.591 419.955 300.894 420.093 301.154C420.241 301.414 420.44 301.618 420.691 301.765C420.951 301.912 421.246 301.986 421.575 301.986C421.905 301.986 422.195 301.912 422.446 301.765C422.706 301.618 422.906 301.405 423.044 301.128C423.192 300.851 423.265 300.521 423.265 300.14V295.993H424.487V303H423.304V301.635L423.499 301.752C423.335 302.194 423.053 302.541 422.654 302.792C422.264 303.035 421.814 303.156 421.302 303.156ZM429.701 305.86C429.207 305.86 428.748 305.782 428.323 305.626C427.907 305.47 427.548 305.253 427.244 304.976C426.95 304.707 426.724 304.391 426.568 304.027L427.699 303.507C427.821 303.836 428.05 304.114 428.388 304.339C428.735 304.573 429.168 304.69 429.688 304.69C430.087 304.69 430.447 304.612 430.767 304.456C431.097 304.309 431.357 304.083 431.547 303.78C431.738 303.485 431.833 303.126 431.833 302.701V301.128L432.054 301.362C431.812 301.839 431.461 302.203 431.001 302.454C430.551 302.705 430.052 302.831 429.506 302.831C428.848 302.831 428.258 302.679 427.738 302.376C427.218 302.064 426.811 301.644 426.516 301.115C426.222 300.578 426.074 299.984 426.074 299.334C426.074 298.675 426.222 298.082 426.516 297.553C426.811 297.024 427.214 296.608 427.725 296.305C428.245 295.993 428.835 295.837 429.493 295.837C430.039 295.837 430.533 295.963 430.975 296.214C431.426 296.457 431.786 296.795 432.054 297.228L431.872 297.553V295.993H433.055V302.701C433.055 303.308 432.912 303.849 432.626 304.326C432.34 304.803 431.942 305.175 431.43 305.444C430.928 305.721 430.351 305.86 429.701 305.86ZM429.61 301.661C430.026 301.661 430.399 301.557 430.728 301.349C431.066 301.141 431.335 300.864 431.534 300.517C431.734 300.162 431.833 299.767 431.833 299.334C431.833 298.909 431.734 298.519 431.534 298.164C431.335 297.809 431.066 297.527 430.728 297.319C430.399 297.111 430.026 297.007 429.61 297.007C429.186 297.007 428.8 297.111 428.453 297.319C428.107 297.527 427.834 297.809 427.634 298.164C427.444 298.511 427.348 298.901 427.348 299.334C427.348 299.767 427.444 300.162 427.634 300.517C427.834 300.864 428.102 301.141 428.44 301.349C428.787 301.557 429.177 301.661 429.61 301.661Z" fill="#52525B"/>
<path d="M480.999 303.156C480.383 303.156 479.82 303.043 479.309 302.818C478.797 302.584 478.364 302.268 478.009 301.869C477.653 301.47 477.398 301.024 477.242 300.53L478.347 300.075C478.581 300.699 478.927 301.18 479.387 301.518C479.855 301.847 480.401 302.012 481.025 302.012C481.406 302.012 481.74 301.951 482.026 301.83C482.312 301.709 482.533 301.54 482.689 301.323C482.853 301.098 482.936 300.838 482.936 300.543C482.936 300.136 482.819 299.815 482.585 299.581C482.359 299.338 482.026 299.156 481.584 299.035L479.803 298.489C479.101 298.272 478.563 297.93 478.191 297.462C477.818 296.994 477.632 296.457 477.632 295.85C477.632 295.321 477.757 294.858 478.009 294.459C478.269 294.052 478.624 293.735 479.075 293.51C479.534 293.276 480.054 293.159 480.635 293.159C481.215 293.159 481.74 293.263 482.208 293.471C482.684 293.679 483.087 293.961 483.417 294.316C483.746 294.663 483.989 295.061 484.145 295.512L483.053 295.967C482.845 295.421 482.533 295.009 482.117 294.732C481.701 294.446 481.211 294.303 480.648 294.303C480.301 294.303 479.993 294.364 479.725 294.485C479.465 294.598 479.261 294.767 479.114 294.992C478.975 295.209 478.906 295.469 478.906 295.772C478.906 296.127 479.018 296.444 479.244 296.721C479.469 296.998 479.811 297.211 480.271 297.358L481.896 297.839C482.658 298.073 483.235 298.407 483.625 298.84C484.015 299.273 484.21 299.811 484.21 300.452C484.21 300.981 484.071 301.449 483.794 301.856C483.525 302.263 483.148 302.584 482.663 302.818C482.186 303.043 481.631 303.156 480.999 303.156ZM489.156 303.156C488.48 303.156 487.878 302.996 487.349 302.675C486.82 302.354 486.404 301.917 486.101 301.362C485.798 300.799 485.646 300.17 485.646 299.477C485.646 298.775 485.793 298.151 486.088 297.605C486.391 297.059 486.799 296.63 487.31 296.318C487.83 295.997 488.411 295.837 489.052 295.837C489.572 295.837 490.031 295.932 490.43 296.123C490.837 296.305 491.18 296.556 491.457 296.877C491.743 297.189 491.96 297.549 492.107 297.956C492.263 298.355 492.341 298.771 492.341 299.204C492.341 299.299 492.332 299.408 492.315 299.529C492.306 299.642 492.293 299.75 492.276 299.854H486.53V298.814H491.574L491.002 299.282C491.08 298.831 491.037 298.428 490.872 298.073C490.707 297.718 490.465 297.436 490.144 297.228C489.823 297.02 489.459 296.916 489.052 296.916C488.645 296.916 488.272 297.02 487.934 297.228C487.596 297.436 487.332 297.735 487.141 298.125C486.959 298.506 486.885 298.961 486.92 299.49C486.885 300.001 486.963 300.452 487.154 300.842C487.353 301.223 487.631 301.522 487.986 301.739C488.35 301.947 488.744 302.051 489.169 302.051C489.637 302.051 490.031 301.943 490.352 301.726C490.673 301.509 490.933 301.232 491.132 300.894L492.146 301.414C492.007 301.735 491.791 302.029 491.496 302.298C491.21 302.558 490.868 302.766 490.469 302.922C490.079 303.078 489.641 303.156 489.156 303.156ZM493.917 305.6V295.993H495.1V297.501L494.944 297.202C495.204 296.786 495.56 296.457 496.01 296.214C496.461 295.963 496.977 295.837 497.557 295.837C498.216 295.837 498.805 295.997 499.325 296.318C499.854 296.639 500.27 297.076 500.573 297.631C500.877 298.177 501.028 298.801 501.028 299.503C501.028 300.188 500.877 300.807 500.573 301.362C500.27 301.917 499.854 302.354 499.325 302.675C498.805 302.996 498.212 303.156 497.544 303.156C496.981 303.156 496.465 303.03 495.997 302.779C495.538 302.528 495.183 302.172 494.931 301.713L495.126 301.505V305.6H493.917ZM497.453 301.986C497.895 301.986 498.29 301.878 498.636 301.661C498.983 301.444 499.252 301.15 499.442 300.777C499.642 300.396 499.741 299.971 499.741 299.503C499.741 299.018 499.642 298.593 499.442 298.229C499.252 297.856 498.983 297.562 498.636 297.345C498.29 297.12 497.895 297.007 497.453 297.007C497.011 297.007 496.613 297.115 496.257 297.332C495.911 297.549 495.633 297.848 495.425 298.229C495.226 298.602 495.126 299.026 495.126 299.503C495.126 299.971 495.226 300.396 495.425 300.777C495.633 301.15 495.911 301.444 496.257 301.661C496.613 301.878 497.011 301.986 497.453 301.986Z" fill="#52525B"/>
<path d="M550.142 303.156C549.457 303.156 548.816 303.035 548.218 302.792C547.62 302.541 547.095 302.19 546.645 301.739C546.203 301.288 545.856 300.76 545.605 300.153C545.353 299.538 545.228 298.87 545.228 298.151C545.228 297.423 545.353 296.756 545.605 296.149C545.856 295.542 546.203 295.014 546.645 294.563C547.095 294.112 547.615 293.766 548.205 293.523C548.803 293.28 549.448 293.159 550.142 293.159C550.835 293.159 551.476 293.285 552.066 293.536C552.664 293.779 553.184 294.125 553.626 294.576C554.076 295.018 554.427 295.542 554.679 296.149C554.939 296.756 555.069 297.423 555.069 298.151C555.069 298.87 554.939 299.538 554.679 300.153C554.427 300.76 554.076 301.288 553.626 301.739C553.184 302.19 552.664 302.541 552.066 302.792C551.476 303.035 550.835 303.156 550.142 303.156ZM550.142 301.973C550.679 301.973 551.169 301.878 551.611 301.687C552.053 301.488 552.434 301.215 552.755 300.868C553.084 300.513 553.335 300.105 553.509 299.646C553.691 299.178 553.782 298.68 553.782 298.151C553.782 297.622 553.691 297.128 553.509 296.669C553.335 296.21 553.084 295.807 552.755 295.46C552.434 295.105 552.053 294.832 551.611 294.641C551.169 294.442 550.679 294.342 550.142 294.342C549.613 294.342 549.128 294.442 548.686 294.641C548.244 294.832 547.858 295.105 547.529 295.46C547.208 295.807 546.957 296.21 546.775 296.669C546.593 297.128 546.502 297.622 546.502 298.151C546.502 298.68 546.593 299.178 546.775 299.646C546.957 300.105 547.208 300.513 547.529 300.868C547.858 301.215 548.244 301.488 548.686 301.687C549.128 301.878 549.613 301.973 550.142 301.973ZM560.034 303.156C559.349 303.156 558.738 302.996 558.201 302.675C557.672 302.354 557.256 301.917 556.953 301.362C556.649 300.807 556.498 300.183 556.498 299.49C556.498 298.788 556.649 298.164 556.953 297.618C557.256 297.072 557.672 296.639 558.201 296.318C558.738 295.997 559.349 295.837 560.034 295.837C560.493 295.837 560.922 295.919 561.321 296.084C561.719 296.249 562.07 296.47 562.374 296.747C562.677 297.024 562.898 297.349 563.037 297.722L561.958 298.242C561.793 297.878 561.542 297.583 561.204 297.358C560.866 297.124 560.476 297.007 560.034 297.007C559.609 297.007 559.223 297.115 558.877 297.332C558.539 297.549 558.27 297.843 558.071 298.216C557.871 298.589 557.772 299.018 557.772 299.503C557.772 299.971 557.871 300.396 558.071 300.777C558.27 301.15 558.539 301.444 558.877 301.661C559.223 301.878 559.609 301.986 560.034 301.986C560.476 301.986 560.866 301.873 561.204 301.648C561.542 301.414 561.793 301.106 561.958 300.725L563.037 301.271C562.898 301.635 562.677 301.96 562.374 302.246C562.07 302.523 561.719 302.744 561.321 302.909C560.922 303.074 560.493 303.156 560.034 303.156ZM567.464 303.078C566.779 303.078 566.25 302.883 565.878 302.493C565.514 302.103 565.332 301.553 565.332 300.842V297.15H564.058V295.993H564.318C564.63 295.993 564.877 295.898 565.059 295.707C565.241 295.516 565.332 295.265 565.332 294.953V294.381H566.541V295.993H568.114V297.15H566.541V300.803C566.541 301.037 566.575 301.241 566.645 301.414C566.723 301.587 566.848 301.726 567.022 301.83C567.195 301.925 567.425 301.973 567.711 301.973C567.771 301.973 567.845 301.969 567.932 301.96C568.027 301.951 568.114 301.943 568.192 301.934V303C568.079 303.026 567.953 303.043 567.815 303.052C567.676 303.069 567.559 303.078 567.464 303.078Z" fill="#52525B"/>
<path d="M612.26 303V293.315H613.326L618.89 301.141L618.409 301.193V293.315H619.696V303H618.63L613.092 295.122L613.534 295.07V303H612.26ZM625.042 303.156C624.366 303.156 623.755 303 623.209 302.688C622.663 302.367 622.23 301.93 621.909 301.375C621.589 300.82 621.428 300.192 621.428 299.49C621.428 298.788 621.584 298.164 621.896 297.618C622.217 297.072 622.65 296.639 623.196 296.318C623.742 295.997 624.358 295.837 625.042 295.837C625.718 295.837 626.329 295.997 626.875 296.318C627.421 296.63 627.85 297.059 628.162 297.605C628.483 298.151 628.643 298.779 628.643 299.49C628.643 300.201 628.479 300.833 628.149 301.388C627.82 301.934 627.382 302.367 626.836 302.688C626.299 303 625.701 303.156 625.042 303.156ZM625.042 301.986C625.476 301.986 625.866 301.878 626.212 301.661C626.568 301.444 626.845 301.145 627.044 300.764C627.252 300.383 627.356 299.958 627.356 299.49C627.356 299.013 627.252 298.593 627.044 298.229C626.845 297.856 626.568 297.562 626.212 297.345C625.866 297.12 625.476 297.007 625.042 297.007C624.6 297.007 624.202 297.12 623.846 297.345C623.5 297.562 623.222 297.856 623.014 298.229C622.806 298.593 622.702 299.013 622.702 299.49C622.702 299.958 622.806 300.383 623.014 300.764C623.222 301.145 623.5 301.444 623.846 301.661C624.202 301.878 624.6 301.986 625.042 301.986ZM632.043 303L629.3 295.993H630.652L632.849 301.921H632.381L634.591 295.993H635.943L633.187 303H632.043Z" fill="#52525B"/>
<path d="M679.487 303V293.315H682.659C683.638 293.315 684.492 293.514 685.22 293.913C685.948 294.312 686.511 294.875 686.91 295.603C687.308 296.322 687.508 297.172 687.508 298.151C687.508 299.122 687.308 299.971 686.91 300.699C686.511 301.427 685.948 301.995 685.22 302.402C684.492 302.801 683.638 303 682.659 303H679.487ZM680.761 301.83H682.672C683.391 301.83 684.011 301.678 684.531 301.375C685.059 301.072 685.467 300.647 685.753 300.101C686.039 299.546 686.182 298.896 686.182 298.151C686.182 297.397 686.034 296.747 685.74 296.201C685.454 295.655 685.046 295.235 684.518 294.94C683.998 294.637 683.382 294.485 682.672 294.485H680.761V301.83ZM692.203 303.156C691.527 303.156 690.925 302.996 690.396 302.675C689.868 302.354 689.452 301.917 689.148 301.362C688.845 300.799 688.693 300.17 688.693 299.477C688.693 298.775 688.841 298.151 689.135 297.605C689.439 297.059 689.846 296.63 690.357 296.318C690.877 295.997 691.458 295.837 692.099 295.837C692.619 295.837 693.079 295.932 693.477 296.123C693.885 296.305 694.227 296.556 694.504 296.877C694.79 297.189 695.007 297.549 695.154 297.956C695.31 298.355 695.388 298.771 695.388 299.204C695.388 299.299 695.38 299.408 695.362 299.529C695.354 299.642 695.341 299.75 695.323 299.854H689.577V298.814H694.621L694.049 299.282C694.127 298.831 694.084 298.428 693.919 298.073C693.755 297.718 693.512 297.436 693.191 297.228C692.871 297.02 692.507 296.916 692.099 296.916C691.692 296.916 691.319 297.02 690.981 297.228C690.643 297.436 690.379 297.735 690.188 298.125C690.006 298.506 689.933 298.961 689.967 299.49C689.933 300.001 690.011 300.452 690.201 300.842C690.401 301.223 690.678 301.522 691.033 301.739C691.397 301.947 691.792 302.051 692.216 302.051C692.684 302.051 693.079 301.943 693.399 301.726C693.72 301.509 693.98 301.232 694.179 300.894L695.193 301.414C695.055 301.735 694.838 302.029 694.543 302.298C694.257 302.558 693.915 302.766 693.516 302.922C693.126 303.078 692.689 303.156 692.203 303.156ZM700.215 303.156C699.53 303.156 698.919 302.996 698.382 302.675C697.853 302.354 697.437 301.917 697.134 301.362C696.83 300.807 696.679 300.183 696.679 299.49C696.679 298.788 696.83 298.164 697.134 297.618C697.437 297.072 697.853 296.639 698.382 296.318C698.919 295.997 699.53 295.837 700.215 295.837C700.674 295.837 701.103 295.919 701.502 296.084C701.9 296.249 702.251 296.47 702.555 296.747C702.858 297.024 703.079 297.349 703.218 297.722L702.139 298.242C701.974 297.878 701.723 297.583 701.385 297.358C701.047 297.124 700.657 297.007 700.215 297.007C699.79 297.007 699.404 297.115 699.058 297.332C698.72 297.549 698.451 297.843 698.252 298.216C698.052 298.589 697.953 299.018 697.953 299.503C697.953 299.971 698.052 300.396 698.252 300.777C698.451 301.15 698.72 301.444 699.058 301.661C699.404 301.878 699.79 301.986 700.215 301.986C700.657 301.986 701.047 301.873 701.385 301.648C701.723 301.414 701.974 301.106 702.139 300.725L703.218 301.271C703.079 301.635 702.858 301.96 702.555 302.246C702.251 302.523 701.9 302.744 701.502 302.909C701.103 303.074 700.674 303.156 700.215 303.156Z" fill="#52525B"/>
<line x1="299.635" y1="196" x2="299.635" y2="268" stroke="#E4E4E7"/>
<circle cx="299.135" cy="186.35" r="6" fill="#F65E2C" stroke="white" stroke-width="2"/>
<path d="M32.4068 43.112C31.3721 43.112 30.4174 42.872 29.5428 42.392C28.6788 41.9013 27.9908 41.224 27.4788 40.36C26.9774 39.4853 26.7268 38.504 26.7268 37.416C26.7268 36.328 26.9774 35.352 27.4788 34.488C27.9908 33.624 28.6788 32.952 29.5428 32.472C30.4174 31.9813 31.3721 31.736 32.4068 31.736C33.4521 31.736 34.4068 31.9813 35.2708 32.472C36.1454 32.952 36.8334 33.624 37.3348 34.488C37.8361 35.352 38.0868 36.328 38.0868 37.416C38.0868 38.504 37.8361 39.4853 37.3348 40.36C36.8334 41.224 36.1454 41.9013 35.2708 42.392C34.4068 42.872 33.4521 43.112 32.4068 43.112ZM32.4068 41.528C33.1428 41.528 33.7988 41.3627 34.3748 41.032C34.9508 40.6907 35.3988 40.2107 35.7188 39.592C36.0494 38.9627 36.2148 38.2373 36.2148 37.416C36.2148 36.5947 36.0494 35.8747 35.7188 35.256C35.3988 34.6373 34.9508 34.1627 34.3748 33.832C33.7988 33.5013 33.1428 33.336 32.4068 33.336C31.6708 33.336 31.0148 33.5013 30.4388 33.832C29.8628 34.1627 29.4094 34.6373 29.0788 35.256C28.7588 35.8747 28.5988 36.5947 28.5988 37.416C28.5988 38.2373 28.7588 38.9627 29.0788 39.592C29.4094 40.2107 29.8628 40.6907 30.4388 41.032C31.0148 41.3627 31.6708 41.528 32.4068 41.528ZM41.7056 35.464C41.9723 35.016 42.3243 34.6693 42.7616 34.424C43.2096 34.168 43.7376 34.04 44.3456 34.04V35.928H43.8816C43.167 35.928 42.623 36.1093 42.2496 36.472C41.887 36.8347 41.7056 37.464 41.7056 38.36V43H39.8816V34.184H41.7056V35.464ZM49.5743 34.04C50.2569 34.04 50.8596 34.1787 51.3823 34.456C51.9156 34.7227 52.3316 35.0587 52.6303 35.464V34.184H54.4703V43.144C54.4703 43.9547 54.2996 44.6747 53.9583 45.304C53.6169 45.944 53.1209 46.4453 52.4703 46.808C51.8303 47.1707 51.0623 47.352 50.1663 47.352C48.9716 47.352 47.9796 47.0693 47.1903 46.504C46.4009 45.9493 45.9529 45.192 45.8463 44.232H47.6543C47.7929 44.6907 48.0863 45.0587 48.5343 45.336C48.9929 45.624 49.5369 45.768 50.1663 45.768C50.9023 45.768 51.4943 45.544 51.9423 45.096C52.4009 44.648 52.6303 43.9973 52.6303 43.144V41.672C52.3209 42.088 51.8996 42.44 51.3663 42.728C50.8436 43.0053 50.2463 43.144 49.5743 43.144C48.8063 43.144 48.1023 42.952 47.4623 42.568C46.8329 42.1733 46.3316 41.6293 45.9583 40.936C45.5956 40.232 45.4143 39.4373 45.4143 38.552C45.4143 37.6667 45.5956 36.8827 45.9583 36.2C46.3316 35.5173 46.8329 34.9893 47.4623 34.616C48.1023 34.232 48.8063 34.04 49.5743 34.04ZM52.6303 38.584C52.6303 37.976 52.5023 37.448 52.2463 37C52.0009 36.552 51.6756 36.2107 51.2703 35.976C50.8649 35.7413 50.4276 35.624 49.9583 35.624C49.4889 35.624 49.0516 35.7413 48.6463 35.976C48.2409 36.2 47.9103 36.536 47.6543 36.984C47.4089 37.4213 47.2863 37.944 47.2863 38.552C47.2863 39.16 47.4089 39.6933 47.6543 40.152C47.9103 40.6107 48.2409 40.9627 48.6463 41.208C49.0623 41.4427 49.4996 41.56 49.9583 41.56C50.4276 41.56 50.8649 41.4427 51.2703 41.208C51.6756 40.9733 52.0009 40.632 52.2463 40.184C52.5023 39.7253 52.6303 39.192 52.6303 38.584ZM56.258 38.552C56.258 37.6667 56.4393 36.8827 56.802 36.2C57.1753 35.5173 57.6767 34.9893 58.306 34.616C58.946 34.232 59.65 34.04 60.418 34.04C61.1113 34.04 61.714 34.1787 62.226 34.456C62.7487 34.7227 63.1647 35.0587 63.474 35.464V34.184H65.314V43H63.474V41.688C63.1647 42.104 62.7433 42.4507 62.21 42.728C61.6767 43.0053 61.0687 43.144 60.386 43.144C59.6287 43.144 58.9353 42.952 58.306 42.568C57.6767 42.1733 57.1753 41.6293 56.802 40.936C56.4393 40.232 56.258 39.4373 56.258 38.552ZM63.474 38.584C63.474 37.976 63.346 37.448 63.09 37C62.8447 36.552 62.5193 36.2107 62.114 35.976C61.7087 35.7413 61.2713 35.624 60.802 35.624C60.3327 35.624 59.8953 35.7413 59.49 35.976C59.0847 36.2 58.754 36.536 58.498 36.984C58.2527 37.4213 58.13 37.944 58.13 38.552C58.13 39.16 58.2527 39.6933 58.498 40.152C58.754 40.6107 59.0847 40.9627 59.49 41.208C59.906 41.4427 60.3433 41.56 60.802 41.56C61.2713 41.56 61.7087 41.4427 62.114 41.208C62.5193 40.9733 62.8447 40.632 63.09 40.184C63.346 39.7253 63.474 39.192 63.474 38.584ZM72.1578 34.04C72.8511 34.04 73.4698 34.184 74.0138 34.472C74.5684 34.76 75.0004 35.1867 75.3098 35.752C75.6191 36.3173 75.7738 37 75.7738 37.8V43H73.9658V38.072C73.9658 37.2827 73.7684 36.68 73.3738 36.264C72.9791 35.8373 72.4404 35.624 71.7578 35.624C71.0751 35.624 70.5311 35.8373 70.1258 36.264C69.7311 36.68 69.5338 37.2827 69.5338 38.072V43H67.7098V34.184H69.5338V35.192C69.8324 34.8293 70.2111 34.5467 70.6698 34.344C71.1391 34.1413 71.6351 34.04 72.1578 34.04ZM79.0284 33.016C78.6977 33.016 78.4204 32.904 78.1964 32.68C77.9724 32.456 77.8604 32.1787 77.8604 31.848C77.8604 31.5173 77.9724 31.24 78.1964 31.016C78.4204 30.792 78.6977 30.68 79.0284 30.68C79.3484 30.68 79.6204 30.792 79.8444 31.016C80.0684 31.24 80.1804 31.5173 80.1804 31.848C80.1804 32.1787 80.0684 32.456 79.8444 32.68C79.6204 32.904 79.3484 33.016 79.0284 33.016ZM79.9244 34.184V43H78.1004V34.184H79.9244ZM83.9351 41.512H87.9351V43H81.8231V41.512L85.8391 35.672H81.8231V34.184H87.9351V35.672L83.9351 41.512ZM89.2424 38.552C89.2424 37.6667 89.4237 36.8827 89.7864 36.2C90.1597 35.5173 90.6611 34.9893 91.2904 34.616C91.9304 34.232 92.6344 34.04 93.4024 34.04C94.0957 34.04 94.6984 34.1787 95.2104 34.456C95.7331 34.7227 96.1491 35.0587 96.4584 35.464V34.184H98.2984V43H96.4584V41.688C96.1491 42.104 95.7277 42.4507 95.1944 42.728C94.6611 43.0053 94.0531 43.144 93.3704 43.144C92.6131 43.144 91.9197 42.952 91.2904 42.568C90.6611 42.1733 90.1597 41.6293 89.7864 40.936C89.4237 40.232 89.2424 39.4373 89.2424 38.552ZM96.4584 38.584C96.4584 37.976 96.3304 37.448 96.0744 37C95.8291 36.552 95.5037 36.2107 95.0984 35.976C94.6931 35.7413 94.2557 35.624 93.7864 35.624C93.3171 35.624 92.8797 35.7413 92.4744 35.976C92.0691 36.2 91.7384 36.536 91.4824 36.984C91.2371 37.4213 91.1144 37.944 91.1144 38.552C91.1144 39.16 91.2371 39.6933 91.4824 40.152C91.7384 40.6107 92.0691 40.9627 92.4744 41.208C92.8904 41.4427 93.3277 41.56 93.7864 41.56C94.2557 41.56 94.6931 41.4427 95.0984 41.208C95.5037 40.9733 95.8291 40.632 96.0744 40.184C96.3304 39.7253 96.4584 39.192 96.4584 38.584ZM102.822 35.672V40.552C102.822 40.8827 102.897 41.1227 103.046 41.272C103.206 41.4107 103.473 41.48 103.846 41.48H104.966V43H103.526C102.705 43 102.075 42.808 101.638 42.424C101.201 42.04 100.982 41.416 100.982 40.552V35.672H99.9421V34.184H100.982V31.992H102.822V34.184H104.966V35.672H102.822ZM107.575 33.016C107.245 33.016 106.967 32.904 106.743 32.68C106.519 32.456 106.407 32.1787 106.407 31.848C106.407 31.5173 106.519 31.24 106.743 31.016C106.967 30.792 107.245 30.68 107.575 30.68C107.895 30.68 108.167 30.792 108.391 31.016C108.615 31.24 108.727 31.5173 108.727 31.848C108.727 32.1787 108.615 32.456 108.391 32.68C108.167 32.904 107.895 33.016 107.575 33.016ZM108.471 34.184V43H106.647V34.184H108.471ZM114.69 43.144C113.858 43.144 113.106 42.9573 112.434 42.584C111.762 42.2 111.234 41.6667 110.85 40.984C110.466 40.2907 110.274 39.4907 110.274 38.584C110.274 37.688 110.471 36.8933 110.866 36.2C111.261 35.5067 111.799 34.9733 112.482 34.6C113.165 34.2267 113.927 34.04 114.77 34.04C115.613 34.04 116.375 34.2267 117.058 34.6C117.741 34.9733 118.279 35.5067 118.674 36.2C119.069 36.8933 119.266 37.688 119.266 38.584C119.266 39.48 119.063 40.2747 118.658 40.968C118.253 41.6613 117.698 42.2 116.994 42.584C116.301 42.9573 115.533 43.144 114.69 43.144ZM114.69 41.56C115.159 41.56 115.597 41.448 116.002 41.224C116.418 41 116.754 40.664 117.01 40.216C117.266 39.768 117.394 39.224 117.394 38.584C117.394 37.944 117.271 37.4053 117.026 36.968C116.781 36.52 116.455 36.184 116.05 35.96C115.645 35.736 115.207 35.624 114.738 35.624C114.269 35.624 113.831 35.736 113.426 35.96C113.031 36.184 112.717 36.52 112.482 36.968C112.247 37.4053 112.13 37.944 112.13 38.584C112.13 39.5333 112.37 40.2693 112.85 40.792C113.341 41.304 113.954 41.56 114.69 41.56ZM125.517 34.04C126.21 34.04 126.829 34.184 127.373 34.472C127.928 34.76 128.36 35.1867 128.669 35.752C128.978 36.3173 129.133 37 129.133 37.8V43H127.325V38.072C127.325 37.2827 127.128 36.68 126.733 36.264C126.338 35.8373 125.8 35.624 125.117 35.624C124.434 35.624 123.89 35.8373 123.485 36.264C123.09 36.68 122.893 37.2827 122.893 38.072V43H121.069V34.184H122.893V35.192C123.192 34.8293 123.57 34.5467 124.029 34.344C124.498 34.1413 124.994 34.04 125.517 34.04ZM141.392 43L138.832 38.552H137.44V43H135.616V31.88H139.456C140.309 31.88 141.029 32.0293 141.616 32.328C142.213 32.6267 142.656 33.0267 142.944 33.528C143.243 34.0293 143.392 34.5893 143.392 35.208C143.392 35.9333 143.179 36.5947 142.752 37.192C142.336 37.7787 141.691 38.1787 140.816 38.392L143.568 43H141.392ZM137.44 37.096H139.456C140.139 37.096 140.651 36.9253 140.992 36.584C141.344 36.2427 141.52 35.784 141.52 35.208C141.52 34.632 141.349 34.184 141.008 33.864C140.667 33.5333 140.149 33.368 139.456 33.368H137.44V37.096ZM153.805 38.376C153.805 38.7067 153.784 39.0053 153.741 39.272H147.005C147.059 39.976 147.32 40.5413 147.789 40.968C148.259 41.3947 148.835 41.608 149.517 41.608C150.499 41.608 151.192 41.1973 151.597 40.376H153.565C153.299 41.1867 152.813 41.8533 152.109 42.376C151.416 42.888 150.552 43.144 149.517 43.144C148.675 43.144 147.917 42.9573 147.245 42.584C146.584 42.2 146.061 41.6667 145.677 40.984C145.304 40.2907 145.117 39.4907 145.117 38.584C145.117 37.6773 145.299 36.8827 145.661 36.2C146.035 35.5067 146.552 34.9733 147.213 34.6C147.885 34.2267 148.653 34.04 149.517 34.04C150.349 34.04 151.091 34.2213 151.741 34.584C152.392 34.9467 152.899 35.4587 153.261 36.12C153.624 36.7707 153.805 37.5227 153.805 38.376ZM151.901 37.8C151.891 37.128 151.651 36.5893 151.181 36.184C150.712 35.7787 150.131 35.576 149.437 35.576C148.808 35.576 148.269 35.7787 147.821 36.184C147.373 36.5787 147.107 37.1173 147.021 37.8H151.901ZM157.424 35.48C157.734 35.0747 158.155 34.7333 158.688 34.456C159.222 34.1787 159.824 34.04 160.496 34.04C161.264 34.04 161.963 34.232 162.592 34.616C163.232 34.9893 163.734 35.5173 164.096 36.2C164.459 36.8827 164.64 37.6667 164.64 38.552C164.64 39.4373 164.459 40.232 164.096 40.936C163.734 41.6293 163.232 42.1733 162.592 42.568C161.963 42.952 161.264 43.144 160.496 43.144C159.824 43.144 159.227 43.0107 158.704 42.744C158.182 42.4667 157.755 42.1253 157.424 41.72V47.192H155.6V34.184H157.424V35.48ZM162.784 38.552C162.784 37.944 162.656 37.4213 162.4 36.984C162.155 36.536 161.824 36.2 161.408 35.976C161.003 35.7413 160.566 35.624 160.096 35.624C159.638 35.624 159.2 35.7413 158.784 35.976C158.379 36.2107 158.048 36.552 157.792 37C157.547 37.448 157.424 37.976 157.424 38.584C157.424 39.192 157.547 39.7253 157.792 40.184C158.048 40.632 158.379 40.9733 158.784 41.208C159.2 41.4427 159.638 41.56 160.096 41.56C160.566 41.56 161.003 41.4427 161.408 41.208C161.824 40.9627 162.155 40.6107 162.4 40.152C162.656 39.6933 162.784 39.16 162.784 38.552ZM170.268 43.144C169.436 43.144 168.684 42.9573 168.012 42.584C167.34 42.2 166.812 41.6667 166.428 40.984C166.044 40.2907 165.852 39.4907 165.852 38.584C165.852 37.688 166.049 36.8933 166.444 36.2C166.839 35.5067 167.377 34.9733 168.06 34.6C168.743 34.2267 169.505 34.04 170.348 34.04C171.191 34.04 171.953 34.2267 172.636 34.6C173.319 34.9733 173.857 35.5067 174.252 36.2C174.647 36.8933 174.844 37.688 174.844 38.584C174.844 39.48 174.641 40.2747 174.236 40.968C173.831 41.6613 173.276 42.2 172.572 42.584C171.879 42.9573 171.111 43.144 170.268 43.144ZM170.268 41.56C170.737 41.56 171.175 41.448 171.58 41.224C171.996 41 172.332 40.664 172.588 40.216C172.844 39.768 172.972 39.224 172.972 38.584C172.972 37.944 172.849 37.4053 172.604 36.968C172.359 36.52 172.033 36.184 171.628 35.96C171.223 35.736 170.785 35.624 170.316 35.624C169.847 35.624 169.409 35.736 169.004 35.96C168.609 36.184 168.295 36.52 168.06 36.968C167.825 37.4053 167.708 37.944 167.708 38.584C167.708 39.5333 167.948 40.2693 168.428 40.792C168.919 41.304 169.532 41.56 170.268 41.56ZM178.471 35.464C178.738 35.016 179.09 34.6693 179.527 34.424C179.975 34.168 180.503 34.04 181.111 34.04V35.928H180.647C179.933 35.928 179.389 36.1093 179.015 36.472C178.653 36.8347 178.471 37.464 178.471 38.36V43H176.647V34.184H178.471V35.464ZM184.916 35.672V40.552C184.916 40.8827 184.991 41.1227 185.14 41.272C185.3 41.4107 185.567 41.48 185.94 41.48H187.06V43H185.62C184.799 43 184.169 42.808 183.732 42.424C183.295 42.04 183.076 41.416 183.076 40.552V35.672H182.036V34.184H183.076V31.992H184.916V34.184H187.06V35.672H184.916Z" fill="#18181B"/>
<rect x="233.635" y="19.5" width="78" height="29" rx="4.5" fill="white"/>
<rect x="233.635" y="19.5" width="78" height="29" rx="4.5" stroke="#A1A1AA"/>
<path d="M248.353 38V31.081H246.769V29.805H249.849V38H248.353ZM251.393 38V36.867L253.615 34.546C254.055 34.084 254.392 33.7173 254.627 33.446C254.869 33.1673 255.037 32.929 255.133 32.731C255.228 32.533 255.276 32.3313 255.276 32.126C255.276 31.7813 255.166 31.51 254.946 31.312C254.733 31.114 254.458 31.015 254.121 31.015C253.769 31.015 253.464 31.1177 253.208 31.323C252.951 31.521 252.764 31.8143 252.647 32.203L251.338 31.796C251.426 31.3633 251.605 30.9893 251.877 30.674C252.148 30.3513 252.478 30.1057 252.867 29.937C253.263 29.761 253.681 29.673 254.121 29.673C254.649 29.673 255.111 29.7683 255.507 29.959C255.91 30.1497 256.222 30.4173 256.442 30.762C256.669 31.1067 256.783 31.51 256.783 31.972C256.783 32.2653 256.728 32.555 256.618 32.841C256.508 33.127 256.343 33.4203 256.123 33.721C255.903 34.0143 255.617 34.3443 255.265 34.711L253.34 36.735H256.893V38H251.393ZM260.197 38V29.805H261.627L264.696 33.974H264.014L267.017 29.805H268.447V38H266.94V31.51L267.523 31.653L264.41 35.8H264.234L261.198 31.653L261.693 31.51V38H260.197ZM272.821 38.132C272.234 38.132 271.699 37.9963 271.215 37.725C270.738 37.4537 270.357 37.0833 270.071 36.614C269.792 36.1447 269.653 35.6093 269.653 35.008C269.653 34.4067 269.792 33.8713 270.071 33.402C270.357 32.9327 270.738 32.5623 271.215 32.291C271.691 32.0197 272.227 31.884 272.821 31.884C273.407 31.884 273.939 32.0197 274.416 32.291C274.892 32.5623 275.27 32.9327 275.549 33.402C275.835 33.864 275.978 34.3993 275.978 35.008C275.978 35.6093 275.835 36.1447 275.549 36.614C275.263 37.0833 274.881 37.4537 274.405 37.725C273.928 37.9963 273.4 38.132 272.821 38.132ZM272.821 36.812C273.143 36.812 273.426 36.735 273.668 36.581C273.917 36.427 274.111 36.2143 274.251 35.943C274.397 35.6643 274.471 35.3527 274.471 35.008C274.471 34.656 274.397 34.348 274.251 34.084C274.111 33.8127 273.917 33.6 273.668 33.446C273.426 33.2847 273.143 33.204 272.821 33.204C272.491 33.204 272.201 33.2847 271.952 33.446C271.702 33.6 271.504 33.8127 271.358 34.084C271.218 34.348 271.149 34.656 271.149 35.008C271.149 35.3527 271.218 35.6643 271.358 35.943C271.504 36.2143 271.702 36.427 271.952 36.581C272.201 36.735 272.491 36.812 272.821 36.812ZM277.07 38V32.016H278.423V33.193L278.313 32.984C278.453 32.6247 278.68 32.3533 278.995 32.17C279.318 31.9793 279.692 31.884 280.117 31.884C280.557 31.884 280.946 31.9793 281.283 32.17C281.628 32.3607 281.896 32.6283 282.086 32.973C282.277 33.3103 282.372 33.7027 282.372 34.15V38H280.931V34.491C280.931 34.227 280.88 33.9997 280.777 33.809C280.675 33.6183 280.532 33.4717 280.348 33.369C280.172 33.259 279.963 33.204 279.721 33.204C279.487 33.204 279.278 33.259 279.094 33.369C278.911 33.4717 278.768 33.6183 278.665 33.809C278.563 33.9997 278.511 34.227 278.511 34.491V38H277.07ZM286.319 38.066C285.644 38.066 285.12 37.8827 284.746 37.516C284.379 37.142 284.196 36.6177 284.196 35.943V33.303H283.162V32.016H283.272C283.565 32.016 283.793 31.939 283.954 31.785C284.115 31.631 284.196 31.4073 284.196 31.114V30.652H285.637V32.016H287.012V33.303H285.637V35.866C285.637 36.064 285.67 36.2327 285.736 36.372C285.809 36.5113 285.919 36.6177 286.066 36.691C286.22 36.7643 286.414 36.801 286.649 36.801C286.7 36.801 286.759 36.7973 286.825 36.79C286.898 36.7827 286.968 36.7753 287.034 36.768V38C286.931 38.0147 286.814 38.0293 286.682 38.044C286.55 38.0587 286.429 38.066 286.319 38.066ZM288.135 38V29.673H289.576V33.193L289.378 32.984C289.517 32.6247 289.745 32.3533 290.06 32.17C290.383 31.9793 290.757 31.884 291.182 31.884C291.622 31.884 292.011 31.9793 292.348 32.17C292.693 32.3607 292.96 32.6283 293.151 32.973C293.342 33.3103 293.437 33.7027 293.437 34.15V38H291.996V34.491C291.996 34.227 291.945 33.9997 291.842 33.809C291.739 33.6183 291.596 33.4717 291.413 33.369C291.237 33.259 291.028 33.204 290.786 33.204C290.551 33.204 290.342 33.259 290.159 33.369C289.976 33.4717 289.833 33.6183 289.73 33.809C289.627 33.9997 289.576 34.227 289.576 34.491V38H288.135ZM296.932 38.132C296.294 38.132 295.737 37.9817 295.26 37.681C294.791 37.373 294.468 36.9587 294.292 36.438L295.37 35.921C295.524 36.2583 295.737 36.5223 296.008 36.713C296.287 36.9037 296.595 36.999 296.932 36.999C297.196 36.999 297.405 36.9403 297.559 36.823C297.713 36.7057 297.79 36.5517 297.79 36.361C297.79 36.2437 297.757 36.1483 297.691 36.075C297.633 35.9943 297.548 35.9283 297.438 35.877C297.336 35.8183 297.222 35.7707 297.097 35.734L296.118 35.459C295.612 35.3123 295.227 35.0887 294.963 34.788C294.707 34.4873 294.578 34.1317 294.578 33.721C294.578 33.3543 294.67 33.0353 294.853 32.764C295.044 32.4853 295.304 32.269 295.634 32.115C295.972 31.961 296.357 31.884 296.789 31.884C297.354 31.884 297.853 32.0197 298.285 32.291C298.718 32.5623 299.026 32.9437 299.209 33.435L298.109 33.952C298.007 33.6807 297.834 33.4643 297.592 33.303C297.35 33.1417 297.079 33.061 296.778 33.061C296.536 33.061 296.346 33.116 296.206 33.226C296.067 33.336 295.997 33.479 295.997 33.655C295.997 33.765 296.027 33.8603 296.085 33.941C296.144 34.0217 296.225 34.0877 296.327 34.139C296.437 34.1903 296.562 34.238 296.701 34.282L297.658 34.568C298.15 34.7147 298.527 34.9347 298.791 35.228C299.063 35.5213 299.198 35.8807 299.198 36.306C299.198 36.6653 299.103 36.9843 298.912 37.263C298.722 37.5343 298.458 37.747 298.12 37.901C297.783 38.055 297.387 38.132 296.932 38.132Z" fill="#18181B"/>
<rect x="321.135" y="19" width="76" height="30" rx="5" fill="white"/>
<path d="M338.155 38.132C337.598 38.132 337.103 38.0147 336.67 37.78C336.245 37.538 335.911 37.2153 335.669 36.812C335.427 36.4013 335.306 35.9357 335.306 35.415C335.306 35.151 335.332 34.887 335.383 34.623C335.442 34.359 335.544 34.0767 335.691 33.776C335.845 33.4753 336.065 33.1417 336.351 32.775L338.639 29.805H340.421L337.638 33.38L337.396 33.116C337.499 33.0353 337.605 32.973 337.715 32.929C337.825 32.8777 337.935 32.841 338.045 32.819C338.162 32.797 338.283 32.786 338.408 32.786C338.907 32.786 339.35 32.8997 339.739 33.127C340.128 33.3543 340.432 33.666 340.652 34.062C340.879 34.4507 340.993 34.8907 340.993 35.382C340.993 35.91 340.872 36.383 340.63 36.801C340.388 37.2117 340.051 37.538 339.618 37.78C339.193 38.0147 338.705 38.132 338.155 38.132ZM338.155 36.779C338.404 36.779 338.628 36.724 338.826 36.614C339.031 36.4967 339.193 36.3317 339.31 36.119C339.435 35.9063 339.497 35.668 339.497 35.404C339.497 35.1253 339.435 34.887 339.31 34.689C339.193 34.4837 339.035 34.3223 338.837 34.205C338.639 34.0877 338.412 34.029 338.155 34.029C337.906 34.029 337.678 34.0877 337.473 34.205C337.268 34.3223 337.103 34.4837 336.978 34.689C336.861 34.887 336.802 35.1253 336.802 35.404C336.802 35.668 336.861 35.9063 336.978 36.119C337.103 36.3317 337.268 36.4967 337.473 36.614C337.678 36.724 337.906 36.779 338.155 36.779ZM344.197 38V29.805H345.627L348.696 33.974H348.014L351.017 29.805H352.447V38H350.94V31.51L351.523 31.653L348.41 35.8H348.234L345.198 31.653L345.693 31.51V38H344.197ZM356.821 38.132C356.234 38.132 355.699 37.9963 355.215 37.725C354.738 37.4537 354.357 37.0833 354.071 36.614C353.792 36.1447 353.653 35.6093 353.653 35.008C353.653 34.4067 353.792 33.8713 354.071 33.402C354.357 32.9327 354.738 32.5623 355.215 32.291C355.691 32.0197 356.227 31.884 356.821 31.884C357.407 31.884 357.939 32.0197 358.416 32.291C358.892 32.5623 359.27 32.9327 359.549 33.402C359.835 33.864 359.978 34.3993 359.978 35.008C359.978 35.6093 359.835 36.1447 359.549 36.614C359.263 37.0833 358.881 37.4537 358.405 37.725C357.928 37.9963 357.4 38.132 356.821 38.132ZM356.821 36.812C357.143 36.812 357.426 36.735 357.668 36.581C357.917 36.427 358.111 36.2143 358.251 35.943C358.397 35.6643 358.471 35.3527 358.471 35.008C358.471 34.656 358.397 34.348 358.251 34.084C358.111 33.8127 357.917 33.6 357.668 33.446C357.426 33.2847 357.143 33.204 356.821 33.204C356.491 33.204 356.201 33.2847 355.952 33.446C355.702 33.6 355.504 33.8127 355.358 34.084C355.218 34.348 355.149 34.656 355.149 35.008C355.149 35.3527 355.218 35.6643 355.358 35.943C355.504 36.2143 355.702 36.427 355.952 36.581C356.201 36.735 356.491 36.812 356.821 36.812ZM361.07 38V32.016H362.423V33.193L362.313 32.984C362.453 32.6247 362.68 32.3533 362.995 32.17C363.318 31.9793 363.692 31.884 364.117 31.884C364.557 31.884 364.946 31.9793 365.283 32.17C365.628 32.3607 365.896 32.6283 366.086 32.973C366.277 33.3103 366.372 33.7027 366.372 34.15V38H364.931V34.491C364.931 34.227 364.88 33.9997 364.777 33.809C364.675 33.6183 364.532 33.4717 364.348 33.369C364.172 33.259 363.963 33.204 363.721 33.204C363.487 33.204 363.278 33.259 363.094 33.369C362.911 33.4717 362.768 33.6183 362.665 33.809C362.563 33.9997 362.511 34.227 362.511 34.491V38H361.07ZM370.319 38.066C369.644 38.066 369.12 37.8827 368.746 37.516C368.379 37.142 368.196 36.6177 368.196 35.943V33.303H367.162V32.016H367.272C367.565 32.016 367.793 31.939 367.954 31.785C368.115 31.631 368.196 31.4073 368.196 31.114V30.652H369.637V32.016H371.012V33.303H369.637V35.866C369.637 36.064 369.67 36.2327 369.736 36.372C369.809 36.5113 369.919 36.6177 370.066 36.691C370.22 36.7643 370.414 36.801 370.649 36.801C370.7 36.801 370.759 36.7973 370.825 36.79C370.898 36.7827 370.968 36.7753 371.034 36.768V38C370.931 38.0147 370.814 38.0293 370.682 38.044C370.55 38.0587 370.429 38.066 370.319 38.066ZM372.135 38V29.673H373.576V33.193L373.378 32.984C373.517 32.6247 373.745 32.3533 374.06 32.17C374.383 31.9793 374.757 31.884 375.182 31.884C375.622 31.884 376.011 31.9793 376.348 32.17C376.693 32.3607 376.96 32.6283 377.151 32.973C377.342 33.3103 377.437 33.7027 377.437 34.15V38H375.996V34.491C375.996 34.227 375.945 33.9997 375.842 33.809C375.739 33.6183 375.596 33.4717 375.413 33.369C375.237 33.259 375.028 33.204 374.786 33.204C374.551 33.204 374.342 33.259 374.159 33.369C373.976 33.4717 373.833 33.6183 373.73 33.809C373.627 33.9997 373.576 34.227 373.576 34.491V38H372.135ZM380.932 38.132C380.294 38.132 379.737 37.9817 379.26 37.681C378.791 37.373 378.468 36.9587 378.292 36.438L379.37 35.921C379.524 36.2583 379.737 36.5223 380.008 36.713C380.287 36.9037 380.595 36.999 380.932 36.999C381.196 36.999 381.405 36.9403 381.559 36.823C381.713 36.7057 381.79 36.5517 381.79 36.361C381.79 36.2437 381.757 36.1483 381.691 36.075C381.633 35.9943 381.548 35.9283 381.438 35.877C381.336 35.8183 381.222 35.7707 381.097 35.734L380.118 35.459C379.612 35.3123 379.227 35.0887 378.963 34.788C378.707 34.4873 378.578 34.1317 378.578 33.721C378.578 33.3543 378.67 33.0353 378.853 32.764C379.044 32.4853 379.304 32.269 379.634 32.115C379.972 31.961 380.357 31.884 380.789 31.884C381.354 31.884 381.853 32.0197 382.285 32.291C382.718 32.5623 383.026 32.9437 383.209 33.435L382.109 33.952C382.007 33.6807 381.834 33.4643 381.592 33.303C381.35 33.1417 381.079 33.061 380.778 33.061C380.536 33.061 380.346 33.116 380.206 33.226C380.067 33.336 379.997 33.479 379.997 33.655C379.997 33.765 380.027 33.8603 380.085 33.941C380.144 34.0217 380.225 34.0877 380.327 34.139C380.437 34.1903 380.562 34.238 380.701 34.282L381.658 34.568C382.15 34.7147 382.527 34.9347 382.791 35.228C383.063 35.5213 383.198 35.8807 383.198 36.306C383.198 36.6653 383.103 36.9843 382.912 37.263C382.722 37.5343 382.458 37.747 382.12 37.901C381.783 38.055 381.387 38.132 380.932 38.132Z" fill="#71717A"/>
<rect x="406.135" y="19" width="76" height="30" rx="5" fill="white"/>
<path d="M426.292 38.132C425.845 38.132 425.42 38.0513 425.016 37.89C424.62 37.7213 424.279 37.4867 423.993 37.186C423.715 36.878 423.524 36.515 423.421 36.097L424.73 35.635C424.862 36.009 425.064 36.295 425.335 36.493C425.607 36.6837 425.926 36.779 426.292 36.779C426.586 36.779 426.839 36.724 427.051 36.614C427.271 36.504 427.444 36.3463 427.568 36.141C427.693 35.9283 427.755 35.679 427.755 35.393C427.755 35.107 427.693 34.865 427.568 34.667C427.451 34.4617 427.282 34.304 427.062 34.194C426.842 34.084 426.582 34.029 426.281 34.029C426.142 34.029 425.995 34.0437 425.841 34.073C425.695 34.1023 425.563 34.1463 425.445 34.205L425.104 33.49L427.227 31.07H423.883V29.805H428.91V30.982L426.776 33.479L426.798 32.918C427.29 32.9253 427.719 33.0317 428.085 33.237C428.452 33.4423 428.738 33.7247 428.943 34.084C429.149 34.4433 429.251 34.865 429.251 35.349C429.251 35.877 429.123 36.3537 428.866 36.779C428.61 37.197 428.258 37.527 427.81 37.769C427.363 38.011 426.857 38.132 426.292 38.132ZM433.688 38.132C433.035 38.132 432.463 37.956 431.972 37.604C431.481 37.252 431.096 36.757 430.817 36.119C430.546 35.481 430.41 34.7403 430.41 33.897C430.41 33.0463 430.546 32.3057 430.817 31.675C431.088 31.0443 431.47 30.553 431.961 30.201C432.452 29.849 433.024 29.673 433.677 29.673C434.344 29.673 434.92 29.849 435.404 30.201C435.895 30.553 436.28 31.048 436.559 31.686C436.838 32.3167 436.977 33.0537 436.977 33.897C436.977 34.7403 436.838 35.481 436.559 36.119C436.288 36.7497 435.906 37.2447 435.415 37.604C434.924 37.956 434.348 38.132 433.688 38.132ZM433.699 36.768C434.073 36.768 434.392 36.6543 434.656 36.427C434.92 36.1923 435.122 35.8623 435.261 35.437C435.408 35.0043 435.481 34.491 435.481 33.897C435.481 33.303 435.408 32.7933 435.261 32.368C435.122 31.9353 434.916 31.6053 434.645 31.378C434.381 31.1507 434.058 31.037 433.677 31.037C433.31 31.037 432.995 31.1507 432.731 31.378C432.467 31.6053 432.262 31.9353 432.115 32.368C431.976 32.7933 431.906 33.303 431.906 33.897C431.906 34.4837 431.976 34.9933 432.115 35.426C432.262 35.8513 432.467 36.1813 432.731 36.416C433.002 36.6507 433.325 36.768 433.699 36.768ZM440.329 38V29.805H443.002C443.867 29.805 444.619 29.981 445.257 30.333C445.902 30.6777 446.401 31.158 446.753 31.774C447.105 32.3827 447.281 33.0903 447.281 33.897C447.281 34.6963 447.105 35.4077 446.753 36.031C446.401 36.647 445.902 37.131 445.257 37.483C444.619 37.8277 443.867 38 443.002 38H440.329ZM441.825 36.68H443.035C443.592 36.68 444.073 36.5663 444.476 36.339C444.887 36.1043 445.206 35.7817 445.433 35.371C445.66 34.953 445.774 34.4617 445.774 33.897C445.774 33.325 445.66 32.8337 445.433 32.423C445.206 32.0123 444.887 31.6933 444.476 31.466C444.073 31.2387 443.592 31.125 443.035 31.125H441.825V36.68ZM450.144 38.132C449.726 38.132 449.363 38.0623 449.055 37.923C448.747 37.7837 448.509 37.5857 448.34 37.329C448.172 37.065 448.087 36.7607 448.087 36.416C448.087 36.086 448.161 35.7927 448.307 35.536C448.454 35.272 448.681 35.052 448.989 34.876C449.297 34.7 449.686 34.5753 450.155 34.502L452.113 34.183V35.283L450.43 35.569C450.144 35.6203 449.932 35.712 449.792 35.844C449.653 35.976 449.583 36.1483 449.583 36.361C449.583 36.5663 449.66 36.7313 449.814 36.856C449.976 36.9733 450.174 37.032 450.408 37.032C450.709 37.032 450.973 36.9697 451.2 36.845C451.435 36.713 451.615 36.5333 451.739 36.306C451.871 36.0787 451.937 35.8293 451.937 35.558V34.018C451.937 33.7613 451.835 33.5487 451.629 33.38C451.431 33.204 451.167 33.116 450.837 33.116C450.529 33.116 450.254 33.2003 450.012 33.369C449.778 33.5303 449.605 33.7467 449.495 34.018L448.318 33.446C448.436 33.1307 448.619 32.8593 448.868 32.632C449.125 32.3973 449.426 32.214 449.77 32.082C450.115 31.95 450.489 31.884 450.892 31.884C451.384 31.884 451.816 31.9757 452.19 32.159C452.564 32.335 452.854 32.5843 453.059 32.907C453.272 33.2223 453.378 33.5927 453.378 34.018V38H452.014V36.977L452.322 36.955C452.168 37.2117 451.985 37.428 451.772 37.604C451.56 37.7727 451.318 37.9047 451.046 38C450.775 38.088 450.474 38.132 450.144 38.132ZM455.436 40.42C455.275 40.42 455.117 40.4053 454.963 40.376C454.809 40.354 454.67 40.31 454.545 40.244V39.045C454.64 39.067 454.754 39.089 454.886 39.111C455.025 39.133 455.154 39.144 455.271 39.144C455.601 39.144 455.839 39.067 455.986 38.913C456.14 38.7663 456.276 38.5683 456.393 38.319L456.789 37.395L456.767 38.605L454.16 32.016H455.711L457.537 36.878H456.987L458.802 32.016H460.364L457.757 38.605C457.603 38.9863 457.416 39.3127 457.196 39.584C456.976 39.8553 456.719 40.0607 456.426 40.2C456.14 40.3467 455.81 40.42 455.436 40.42ZM463.432 38.132C462.794 38.132 462.237 37.9817 461.76 37.681C461.291 37.373 460.968 36.9587 460.792 36.438L461.87 35.921C462.024 36.2583 462.237 36.5223 462.508 36.713C462.787 36.9037 463.095 36.999 463.432 36.999C463.696 36.999 463.905 36.9403 464.059 36.823C464.213 36.7057 464.29 36.5517 464.29 36.361C464.29 36.2437 464.257 36.1483 464.191 36.075C464.133 35.9943 464.048 35.9283 463.938 35.877C463.836 35.8183 463.722 35.7707 463.597 35.734L462.618 35.459C462.112 35.3123 461.727 35.0887 461.463 34.788C461.207 34.4873 461.078 34.1317 461.078 33.721C461.078 33.3543 461.17 33.0353 461.353 32.764C461.544 32.4853 461.804 32.269 462.134 32.115C462.472 31.961 462.857 31.884 463.289 31.884C463.854 31.884 464.353 32.0197 464.785 32.291C465.218 32.5623 465.526 32.9437 465.709 33.435L464.609 33.952C464.507 33.6807 464.334 33.4643 464.092 33.303C463.85 33.1417 463.579 33.061 463.278 33.061C463.036 33.061 462.846 33.116 462.706 33.226C462.567 33.336 462.497 33.479 462.497 33.655C462.497 33.765 462.527 33.8603 462.585 33.941C462.644 34.0217 462.725 34.0877 462.827 34.139C462.937 34.1903 463.062 34.238 463.201 34.282L464.158 34.568C464.65 34.7147 465.027 34.9347 465.291 35.228C465.563 35.5213 465.698 35.8807 465.698 36.306C465.698 36.6653 465.603 36.9843 465.412 37.263C465.222 37.5343 464.958 37.747 464.62 37.901C464.283 38.055 463.887 38.132 463.432 38.132Z" fill="#71717A"/>
<rect x="491.135" y="19" width="76" height="30" rx="5" fill="white"/>
<path d="M512.73 38L516.14 31.07H512.279V29.805H517.713V31.07L514.38 38H512.73ZM520.829 38V29.805H523.502C524.367 29.805 525.119 29.981 525.757 30.333C526.402 30.6777 526.901 31.158 527.253 31.774C527.605 32.3827 527.781 33.0903 527.781 33.897C527.781 34.6963 527.605 35.4077 527.253 36.031C526.901 36.647 526.402 37.131 525.757 37.483C525.119 37.8277 524.367 38 523.502 38H520.829ZM522.325 36.68H523.535C524.092 36.68 524.573 36.5663 524.976 36.339C525.387 36.1043 525.706 35.7817 525.933 35.371C526.16 34.953 526.274 34.4617 526.274 33.897C526.274 33.325 526.16 32.8337 525.933 32.423C525.706 32.0123 525.387 31.6933 524.976 31.466C524.573 31.2387 524.092 31.125 523.535 31.125H522.325V36.68ZM530.644 38.132C530.226 38.132 529.863 38.0623 529.555 37.923C529.247 37.7837 529.009 37.5857 528.84 37.329C528.672 37.065 528.587 36.7607 528.587 36.416C528.587 36.086 528.661 35.7927 528.807 35.536C528.954 35.272 529.181 35.052 529.489 34.876C529.797 34.7 530.186 34.5753 530.655 34.502L532.613 34.183V35.283L530.93 35.569C530.644 35.6203 530.432 35.712 530.292 35.844C530.153 35.976 530.083 36.1483 530.083 36.361C530.083 36.5663 530.16 36.7313 530.314 36.856C530.476 36.9733 530.674 37.032 530.908 37.032C531.209 37.032 531.473 36.9697 531.7 36.845C531.935 36.713 532.115 36.5333 532.239 36.306C532.371 36.0787 532.437 35.8293 532.437 35.558V34.018C532.437 33.7613 532.335 33.5487 532.129 33.38C531.931 33.204 531.667 33.116 531.337 33.116C531.029 33.116 530.754 33.2003 530.512 33.369C530.278 33.5303 530.105 33.7467 529.995 34.018L528.818 33.446C528.936 33.1307 529.119 32.8593 529.368 32.632C529.625 32.3973 529.926 32.214 530.27 32.082C530.615 31.95 530.989 31.884 531.392 31.884C531.884 31.884 532.316 31.9757 532.69 32.159C533.064 32.335 533.354 32.5843 533.559 32.907C533.772 33.2223 533.878 33.5927 533.878 34.018V38H532.514V36.977L532.822 36.955C532.668 37.2117 532.485 37.428 532.272 37.604C532.06 37.7727 531.818 37.9047 531.546 38C531.275 38.088 530.974 38.132 530.644 38.132ZM535.936 40.42C535.775 40.42 535.617 40.4053 535.463 40.376C535.309 40.354 535.17 40.31 535.045 40.244V39.045C535.14 39.067 535.254 39.089 535.386 39.111C535.525 39.133 535.654 39.144 535.771 39.144C536.101 39.144 536.339 39.067 536.486 38.913C536.64 38.7663 536.776 38.5683 536.893 38.319L537.289 37.395L537.267 38.605L534.66 32.016H536.211L538.037 36.878H537.487L539.302 32.016H540.864L538.257 38.605C538.103 38.9863 537.916 39.3127 537.696 39.584C537.476 39.8553 537.219 40.0607 536.926 40.2C536.64 40.3467 536.31 40.42 535.936 40.42ZM543.932 38.132C543.294 38.132 542.737 37.9817 542.26 37.681C541.791 37.373 541.468 36.9587 541.292 36.438L542.37 35.921C542.524 36.2583 542.737 36.5223 543.008 36.713C543.287 36.9037 543.595 36.999 543.932 36.999C544.196 36.999 544.405 36.9403 544.559 36.823C544.713 36.7057 544.79 36.5517 544.79 36.361C544.79 36.2437 544.757 36.1483 544.691 36.075C544.633 35.9943 544.548 35.9283 544.438 35.877C544.336 35.8183 544.222 35.7707 544.097 35.734L543.118 35.459C542.612 35.3123 542.227 35.0887 541.963 34.788C541.707 34.4873 541.578 34.1317 541.578 33.721C541.578 33.3543 541.67 33.0353 541.853 32.764C542.044 32.4853 542.304 32.269 542.634 32.115C542.972 31.961 543.357 31.884 543.789 31.884C544.354 31.884 544.853 32.0197 545.285 32.291C545.718 32.5623 546.026 32.9437 546.209 33.435L545.109 33.952C545.007 33.6807 544.834 33.4643 544.592 33.303C544.35 33.1417 544.079 33.061 543.778 33.061C543.536 33.061 543.346 33.116 543.206 33.226C543.067 33.336 542.997 33.479 542.997 33.655C542.997 33.765 543.027 33.8603 543.085 33.941C543.144 34.0217 543.225 34.0877 543.327 34.139C543.437 34.1903 543.562 34.238 543.701 34.282L544.658 34.568C545.15 34.7147 545.527 34.9347 545.791 35.228C546.063 35.5213 546.198 35.8807 546.198 36.306C546.198 36.6653 546.103 36.9843 545.912 37.263C545.722 37.5343 545.458 37.747 545.12 37.901C544.783 38.055 544.387 38.132 543.932 38.132Z" fill="#71717A"/>
</svg>
